<?xml version="1.0" encoding="utf-8"?>
<!-- Generator: Adobe Illustrator 23.0.2, SVG Export Plug-In . SVG Version: 6.00 Build 0)  -->
<svg version="1.1" id="Ebene_1" xmlns="http://www.w3.org/2000/svg" xmlns:xlink="http://www.w3.org/1999/xlink" x="0px" y="0px"
	 width="212.6px" height="36.8px" viewBox="0 0 212.6 36.8" style="enable-background:new 0 0 212.6 36.8;" xml:space="preserve">
<style type="text/css">
	.st0{fill:#FFFFFF;}
	.st1{fill:#FFFFFF;}
</style>
<path class="st0" d="M174.1,27.6c-2.6,0-4.6,2.1-4.6,4.6s2.1,4.6,4.6,4.6s4.6-2.1,4.6-4.6S176.6,27.6,174.1,27.6L174.1,27.6
	L174.1,27.6z"/>
<path class="st1" d="M210.8,33.4c-0.6,0.1-1.2,0.1-1.7,0.1c-1.5,0-2.5-0.3-3-0.9c-0.6-0.7-0.8-1.8-0.8-3.4V15.1h6.8v-2.9h-6.8V5.1
	l-3.2,2v20.6v1.9c0,0.5,0,0.9,0.1,1.2c0,0.3,0.1,0.6,0.1,0.8c0,0.2,0.1,0.4,0.1,0.6c0.4,1.2,1.1,2.2,2.1,2.9c1.1,0.7,2.5,1,4.1,1
	c1.4,0,2.7-0.2,4.1-0.5V33C212,33.2,211.4,33.3,210.8,33.4L210.8,33.4L210.8,33.4z"/>
<path class="st1" d="M190.7,11.6c-2.7,0-5.3,0.7-7.9,2.1v3.2c1.1-0.8,2.3-1.3,3.6-1.8c1.3-0.4,2.6-0.7,4-0.7c1.1,0,2.1,0.2,3,0.6
	c0.9,0.4,1.5,0.9,1.8,1.5c0.2,0.4,0.3,0.8,0.4,1.3c0.1,0.5,0.1,1.2,0.1,2.1V21c-1.2,0-2.2,0-3.2,0.1c-0.9,0-1.8,0.1-2.7,0.2
	c-2.8,0.4-5,1.3-6.6,2.8c-1.6,1.5-2.4,3.3-2.4,5.5c0,4.6,3.5,6.9,10.5,6.9c2.1,0,4.7-0.3,7.6-0.8V18.9c0-2.6-0.7-4.5-2.2-5.7
	C195.4,12.1,193.3,11.6,190.7,11.6L190.7,11.6L190.7,11.6z M195.7,33.3c-0.6,0.2-1.3,0.3-2.1,0.3c-0.8,0.1-1.5,0.1-2.3,0.1
	c-2.6,0-4.4-0.3-5.5-1c-1.1-0.7-1.6-1.8-1.6-3.3c0-2.1,0.9-3.6,2.7-4.5c1.9-0.9,4.8-1.4,8.8-1.4V33.3L195.7,33.3L195.7,33.3z"/>
<path class="st1" d="M67.5,12c-0.4-0.1-0.7-0.1-1-0.2c-0.3,0-0.5,0-0.8,0c-3.8,0-6.3,1.9-7.3,5.8v-5.4h-8v23.7h8.4v-10
	c0-2.2,0.4-3.8,1.3-4.9c0.9-1.1,2.2-1.7,4-1.7c1.2,0,2.3,0.3,3.4,0.8V12L67.5,12L67.5,12z"/>
<path class="st1" d="M85.9,11.8c-3.8,0-6.3,1.9-7.2,5.8v-5.4h-8v23.7H79v-10c0-2.2,0.4-3.8,1.3-4.9c0.9-1.1,2.2-1.7,4-1.7
	c1.2,0,2.3,0.3,3.4,0.8V12c-0.4-0.1-0.7-0.1-1-0.2C86.4,11.9,86.2,11.8,85.9,11.8L85.9,11.8L85.9,11.8z"/>
<path class="st1" d="M45.9,15.7c-1.5-2.7-4.5-4.1-9-4.1c-1.8,0-3.6,0.2-5.5,0.6c-1.8,0.4-3.5,0.9-5,1.5v5.5c1.5-0.6,2.9-1.1,4.4-1.4
	c1.5-0.3,2.9-0.5,4.3-0.5s2.4,0.2,3,0.6c0.6,0.4,0.9,1,0.9,1.9v0.7h-1.1c-2,0-3.8,0.2-5.5,0.6c-1.6,0.4-3,1-4.2,1.7
	c-1.2,0.7-2.1,1.6-2.7,2.7c-0.6,1.1-0.9,2.2-0.9,3.5c0,2.4,1,4.2,2.9,5.4c1.9,1.1,4.6,1.7,8.1,1.7c2.1,0,4.1-0.1,6.1-0.3
	c1.9-0.2,3.7-0.4,5.3-0.8V22c0-1.7-0.1-2.9-0.2-3.8C46.5,17.3,46.3,16.4,45.9,15.7L45.9,15.7L45.9,15.7z M35.8,31.2
	c-2.2,0-3.5-1.5-3.5-2.9c0-1.7,1.6-3.5,5.7-3.5h1V31C37.9,31.2,36.9,31.2,35.8,31.2L35.8,31.2L35.8,31.2z"/>
<path class="st1" d="M8.4,25.1l6.4,10.8h10.1l-4.4-5.8c-0.8-1.1-1.4-1.9-1.9-2.5c-0.5-0.6-0.9-1.1-1.2-1.5c-0.3-0.4-0.7-0.7-1-1
	c-0.3-0.3-0.7-0.7-1.2-1.2c0.4-0.3,0.8-0.7,1.1-0.9c0.3-0.3,0.7-0.7,1-1.2s0.8-1,1.2-1.7c0.5-0.7,1.1-1.6,1.8-2.7l3.3-5.1h-9.7
	L8.4,22.7V0.9H0v35h8.4V25.1L8.4,25.1z"/>
<polygon class="st1" points="90.8,35.9 99.2,35.9 99.2,12.2 90.8,12.2 "/>
<path class="st1" d="M94.9,9.3c2.6,0,4.6-2.1,4.6-4.6S97.5,0,94.9,0s-4.6,2.1-4.6,4.6C90.3,7.2,92.4,9.3,94.9,9.3L94.9,9.3L94.9,9.3
	z"/>
<path class="st1" d="M143.6,11.8c-3.8,0-6.3,1.9-7.2,5.8v-5.4h-8.1v23.7h8.4v-10c0-2.2,0.4-3.8,1.3-4.9c0.9-1.1,2.2-1.7,4-1.7
	c1.2,0,2.3,0.3,3.4,0.8V12c-0.4-0.1-0.7-0.1-1-0.2C144.1,11.9,143.8,11.8,143.6,11.8L143.6,11.8L143.6,11.8z"/>
<path class="st1" d="M169.9,24.6c0.1-0.5,0.1-1.1,0.1-1.9c0-1.6-0.3-3.1-0.9-4.4c-0.5-1.3-1.3-2.5-2.3-3.5c-1-1-2.1-1.8-3.5-2.3
	c-1.4-0.5-2.9-0.8-4.5-0.8c-1.7,0-3.3,0.3-4.7,0.9c-1.4,0.6-2.6,1.4-3.7,2.5c-1,1.1-1.8,2.3-2.4,3.8c-0.6,1.5-0.8,3.1-0.8,4.8
	c0,2,0.4,3.8,1.2,5.6c0.8,1.7,1.9,3.2,3.3,4.3c1.3,1,2.6,1.7,4.1,2.1c1.5,0.4,3.3,0.6,5.4,0.6c2.3,0,4.6-0.3,6.8-0.9
	c-0.5-1-0.9-2.1-0.9-3.3c0-0.8,0.1-1.6,0.4-2.3c-1.6,0.4-3.3,0.6-5,0.6c-2,0-3.6-0.3-4.7-1c-1.1-0.7-1.8-1.7-1.9-2.9h13.7
	C169.7,25.7,169.8,25.1,169.9,24.6L169.9,24.6L169.9,24.6z M162.7,22.4h-7.1c-0.1-2.1,0.9-5,3.5-5C163,17.4,162.7,21.5,162.7,22.4
	L162.7,22.4L162.7,22.4z"/>
<path class="st1" d="M122.1,14.8c-1-1-2.1-1.8-3.5-2.3c-1.4-0.5-2.9-0.8-4.5-0.8c-1.7,0-3.3,0.3-4.7,0.9c-1.4,0.6-2.6,1.4-3.7,2.5
	c-1,1.1-1.8,2.3-2.4,3.8c-0.6,1.5-0.9,3.1-0.9,4.8c0,2,0.4,3.8,1.2,5.6c0.8,1.7,1.9,3.2,3.3,4.3c1.3,1,2.6,1.7,4.1,2.1
	c1.5,0.4,3.3,0.6,5.4,0.6c2.6,0,5.2-0.4,7.8-1.1v-5.7c-2.1,0.6-4.2,0.9-6.5,0.9c-2,0-3.6-0.3-4.7-1c-1.1-0.7-1.8-1.7-1.9-2.9h13.6
	c0.2-0.9,0.4-1.5,0.4-2c0.1-0.5,0.1-1.1,0.1-1.9c0-1.6-0.3-3.1-0.8-4.4C123.8,16.9,123,15.7,122.1,14.8L122.1,14.8L122.1,14.8z
	 M117.9,22.4h-7.1c-0.1-2.1,0.9-5,3.5-5C118.2,17.4,117.9,21.5,117.9,22.4L117.9,22.4L117.9,22.4z"/>
</svg>
