<?xml version="1.0" encoding="utf-8"?>
<!-- Generator: Adobe Illustrator 22.1.0, SVG Export Plug-In . SVG Version: 6.00 Build 0)  -->
<svg version="1.1" id="Ebene_1" xmlns="http://www.w3.org/2000/svg" xmlns:xlink="http://www.w3.org/1999/xlink" x="0px" y="0px"
	 width="24px" height="24px" viewBox="0 0 24 24" style="enable-background:new 0 0 24 24;" xml:space="preserve">
<path d="M13.5,7.57c0-0.81-0.67-1.47-1.5-1.47s-1.5,0.66-1.5,1.47s0.67,1.47,1.5,1.47S13.5,8.38,13.5,7.57z M12,11.13
	c0.83,0,1.5,0.66,1.5,1.47s-0.67,1.47-1.5,1.47s-1.5-0.66-1.5-1.47S11.17,11.13,12,11.13z M12,16.16c0.83,0,1.5,0.66,1.5,1.47
	S12.83,19.1,12,19.1s-1.5-0.66-1.5-1.47S11.17,16.16,12,16.16z"/>
</svg>
