<?xml version="1.0" encoding="utf-8"?>
<!-- Generator: Adobe Illustrator 22.1.0, SVG Export Plug-In . SVG Version: 6.00 Build 0)  -->
<svg version="1.1" id="Ebene_1" xmlns="http://www.w3.org/2000/svg" xmlns:xlink="http://www.w3.org/1999/xlink" x="0px" y="0px"
	 width="24px" height="24px" viewBox="0 0 24 24" style="enable-background:new 0 0 24 24;" xml:space="preserve">
<g>
	<g>
		<path d="M12,19.44c-4.09,0-7.45-3.3-7.51-7.41C4.44,7.9,7.76,4.49,11.9,4.43c2-0.03,3.9,0.73,5.34,2.13
			c1.44,1.4,2.24,3.27,2.27,5.28l0,0c0.06,4.14-3.26,7.55-7.4,7.61C12.07,19.44,12.03,19.44,12,19.44z M12,5.18
			c-0.03,0-0.06,0-0.09,0C8.18,5.23,5.19,8.3,5.24,12.03c0.05,3.69,3.07,6.67,6.76,6.67c0.03,0,0.06,0,0.09,0
			c3.73-0.05,6.71-3.12,6.66-6.85l0,0c-0.02-1.8-0.75-3.49-2.04-4.75C15.44,5.86,13.77,5.18,12,5.18z"/>
	</g>
	<g>
		<path d="M15.46,15.68c-0.09,0-0.18-0.03-0.25-0.09l-3.77-3.36c-0.08-0.07-0.12-0.17-0.13-0.27l-0.05-3.41
			c0-0.21,0.16-0.38,0.37-0.38c0.17,0,0.38,0.16,0.38,0.37l0.04,3.25l3.64,3.25c0.15,0.14,0.17,0.38,0.03,0.53
			C15.66,15.63,15.56,15.68,15.46,15.68z"/>
	</g>
</g>
</svg>
