<?xml version="1.0" encoding="utf-8"?>
<!-- Generator: Adobe Illustrator 22.1.0, SVG Export Plug-In . SVG Version: 6.00 Build 0)  -->
<svg version="1.1" id="Ebene_1" xmlns="http://www.w3.org/2000/svg" xmlns:xlink="http://www.w3.org/1999/xlink" x="0px" y="0px"
	 width="24px" height="24px" viewBox="0 0 24 24" style="enable-background:new 0 0 24 24;" xml:space="preserve">
<path d="M18.67,8.36l-6.53-6.53c0,0,0,0,0,0l0,0c0,0,0,0,0,0c0,0,0,0,0,0c-0.04-0.03-0.08-0.06-0.12-0.08
	c-0.04-0.01-0.08-0.02-0.12-0.03c-0.01,0-0.02,0-0.03,0c0,0,0,0,0,0c-0.04,0-0.09,0.01-0.13,0.03c0,0,0,0,0,0c0,0,0,0,0,0
	c0,0-0.01,0-0.01,0.01c-0.04,0.02-0.07,0.04-0.1,0.07v0c0,0,0,0,0,0c0,0,0,0-0.01,0.01L5.08,8.36c-0.15,0.15-0.15,0.38,0,0.53
	s0.38,0.15,0.53,0L11.5,3v18.7c0,0.21,0.17,0.38,0.38,0.38s0.38-0.17,0.38-0.38V3l5.89,5.89c0.15,0.15,0.38,0.15,0.53,0
	C18.82,8.75,18.82,8.51,18.67,8.36z"/>
</svg>
