<?xml version="1.0" encoding="utf-8"?>
<!-- Generator: Adobe Illustrator 22.1.0, SVG Export Plug-In . SVG Version: 6.00 Build 0)  -->
<svg version="1.1" id="Ebene_1" xmlns="http://www.w3.org/2000/svg" xmlns:xlink="http://www.w3.org/1999/xlink" x="0px" y="0px"
	 width="24px" height="24px" viewBox="0 0 24 24" style="enable-background:new 0 0 24 24;" xml:space="preserve">
<g>
	<path d="M17.18,9.72c-0.2-0.03-0.4,0.11-0.43,0.31l-1.43,9H8.59L7.23,9.95C7.2,9.75,7.01,9.61,6.8,9.64
		c-0.2,0.03-0.35,0.22-0.31,0.43l1.41,9.4c0.03,0.18,0.19,0.32,0.37,0.32h7.37c0.18,0,0.34-0.13,0.37-0.32l1.48-9.32
		C17.52,9.94,17.38,9.75,17.18,9.72z"/>
	<path d="M19.38,7.71h-4.21V5.99c0-0.21-0.17-0.38-0.38-0.38H9.2c-0.21,0-0.38,0.17-0.38,0.38v1.72H4.62
		c-0.21,0-0.38,0.17-0.38,0.38s0.17,0.38,0.38,0.38H9.2h5.6h4.58c0.21,0,0.38-0.17,0.38-0.38S19.59,7.71,19.38,7.71z M9.58,7.71
		V6.37h4.85v1.35H9.58z"/>
</g>
</svg>
