<?xml version="1.0" encoding="utf-8"?>
<!-- Generator: Adobe Illustrator 22.1.0, SVG Export Plug-In . SVG Version: 6.00 Build 0)  -->
<svg version="1.1" id="Ebene_1" xmlns="http://www.w3.org/2000/svg" xmlns:xlink="http://www.w3.org/1999/xlink" x="0px" y="0px"
	 width="24px" height="24px" viewBox="0 0 24 24" style="enable-background:new 0 0 24 24;" xml:space="preserve">
<g>
	<path d="M12.74,9.52h2.86c0.21,0,0.38-0.17,0.38-0.38s-0.17-0.38-0.38-0.38h-2.86c-0.21,0-0.38,0.17-0.38,0.38
		S12.53,9.52,12.74,9.52z"/>
	<path d="M15.6,11.29h-2.86c-0.21,0-0.38,0.17-0.38,0.38s0.17,0.38,0.38,0.38h2.86c0.21,0,0.38-0.17,0.38-0.38
		S15.81,11.29,15.6,11.29z"/>
	<path d="M15.6,13.79h-2.86c-0.21,0-0.38,0.17-0.38,0.38s0.17,0.38,0.38,0.38h2.86c0.21,0,0.38-0.17,0.38-0.38
		S15.81,13.79,15.6,13.79z"/>
	<path d="M19.24,19.33H18.3V4.32c0-0.12-0.06-0.24-0.16-0.31s-0.23-0.09-0.35-0.04l-7.52,2.86c-0.15,0.06-0.24,0.19-0.24,0.35v3.2
		H6.83c-0.21,0-0.38,0.17-0.38,0.38v1.78c0,0.21,0.17,0.38,0.38,0.38s0.38-0.17,0.38-0.38v-1.41h2.83v8.2H8.03
		c-0.21,0-0.38,0.17-0.38,0.38s0.17,0.38,0.38,0.38h11.21c0.21,0,0.38-0.17,0.38-0.38S19.45,19.33,19.24,19.33z M10.79,7.44
		l6.77-2.58v14.47h-6.77V7.44z"/>
	<path d="M8.5,16.88c0-1.18-0.71-3.33-1.88-3.33c-1.21,0-1.88,2.2-1.88,3.33c0,1.1,0.61,1.91,1.53,2.07
		c-0.02,0.04-0.03,0.09-0.03,0.14v0.62c0,0.21,0.17,0.38,0.38,0.38S7,19.92,7,19.71v-0.62c0-0.05-0.01-0.09-0.03-0.14
		C7.78,18.81,8.5,18.15,8.5,16.88z M5.5,16.88c0-1.09,0.65-2.58,1.12-2.58s1.12,1.5,1.12,2.58c0,0.84-0.43,1.36-1.12,1.36
		S5.5,17.72,5.5,16.88z"/>
	<path d="M6.64,8.56C6.7,8.6,6.76,8.62,6.83,8.62c0.08,0,0.15-0.02,0.22-0.07c0.23-0.16,2.23-1.63,2.23-3.17
		c0-0.95-0.66-1.42-1.28-1.46c-0.4-0.03-0.85,0.13-1.16,0.49c-0.3-0.35-0.73-0.5-1.12-0.48C5.06,3.96,4.38,4.51,4.38,5.49
		C4.38,7.18,6.54,8.51,6.64,8.56z M5.76,4.67c0.01,0,0.02,0,0.03,0c0.27,0,0.6,0.19,0.66,0.73c0.02,0.19,0.18,0.33,0.37,0.33
		C7.01,5.75,7.18,5.6,7.2,5.41c0.08-0.58,0.44-0.77,0.74-0.74c0.27,0.02,0.58,0.22,0.58,0.71c0,0.87-1.1,1.92-1.71,2.4
		C6.2,7.36,5.13,6.43,5.13,5.49C5.13,4.95,5.45,4.69,5.76,4.67z"/>
</g>
</svg>
