<?xml version="1.0" encoding="utf-8"?>
<!-- Generator: Adobe Illustrator 22.1.0, SVG Export Plug-In . SVG Version: 6.00 Build 0)  -->
<svg version="1.1" id="Ebene_1" xmlns="http://www.w3.org/2000/svg" xmlns:xlink="http://www.w3.org/1999/xlink" x="0px" y="0px"
	 width="24px" height="24px" viewBox="0 0 24 24" style="enable-background:new 0 0 24 24;" xml:space="preserve">
<g>
	<path d="M18.92,6.4h-3.06V5.23c0-0.21-0.17-0.38-0.38-0.38s-0.38,0.17-0.38,0.38V6.4H8.73V5.21c0-0.21-0.17-0.38-0.38-0.38
		S7.98,5,7.98,5.21V6.4H4.9c-0.21,0-0.38,0.17-0.38,0.38v12.42c0,0.21,0.17,0.38,0.38,0.38h14.02c0.21,0,0.38-0.17,0.38-0.38V6.77
		C19.29,6.56,19.13,6.4,18.92,6.4z M7.98,7.15v1.13c0,0.21,0.17,0.38,0.38,0.38s0.38-0.17,0.38-0.38V7.15h6.38v1.15
		c0,0.21,0.17,0.38,0.38,0.38s0.38-0.17,0.38-0.38V7.15h2.69v3.08H5.27V7.15H7.98z M5.27,18.82v-7.84h13.27v7.84H5.27z"/>
	<path d="M10.6,13.25H8c-0.21,0-0.38,0.17-0.38,0.38S7.79,14,8,14h2.6c0.21,0,0.38-0.17,0.38-0.38S10.81,13.25,10.6,13.25z"/>
	<path d="M10.6,15.8H8c-0.21,0-0.38,0.17-0.38,0.38S7.79,16.55,8,16.55h2.6c0.21,0,0.38-0.17,0.38-0.38S10.81,15.8,10.6,15.8z"/>
	<path d="M15.83,13.25h-2.6c-0.21,0-0.38,0.17-0.38,0.38S13.02,14,13.23,14h2.6c0.21,0,0.38-0.17,0.38-0.38S16.04,13.25,15.83,13.25
		z"/>
	<path d="M15.83,15.8h-2.6c-0.21,0-0.38,0.17-0.38,0.38s0.17,0.38,0.38,0.38h2.6c0.21,0,0.38-0.17,0.38-0.38S16.04,15.8,15.83,15.8z
		"/>
</g>
</svg>
