<?xml version="1.0" encoding="utf-8"?>
<!-- Generator: Adobe Illustrator 22.1.0, SVG Export Plug-In . SVG Version: 6.00 Build 0)  -->
<svg version="1.1" id="Ebene_1" xmlns="http://www.w3.org/2000/svg" xmlns:xlink="http://www.w3.org/1999/xlink" x="0px" y="0px"
	 width="24px" height="24px" viewBox="0 0 24 24" style="enable-background:new 0 0 24 24;" xml:space="preserve">
<style type="text/css">
	.st0{fill:#020203;}
</style>
<g>
	<path class="st0" d="M10.64,15.76c-0.27,0-0.52-0.11-0.71-0.29l-2.59-2.59c-0.39-0.39-0.39-1.02,0-1.41s1.02-0.39,1.41,0l1.88,1.88
		l4.74-4.75c0.39-0.39,1.02-0.39,1.41,0c0.39,0.39,0.39,1.02,0,1.41l-5.45,5.46C11.16,15.66,10.91,15.76,10.64,15.76L10.64,15.76z"
		/>
</g>
<g>
	<path class="st0" d="M18.29,21.03H5.84c-1.53,0-2.77-1.24-2.77-2.77V5.81c0-1.53,1.24-2.77,2.77-2.77h12.45
		c1.53,0,2.77,1.24,2.77,2.77v12.45C21.07,19.79,19.83,21.03,18.29,21.03z M5.84,5.03c-0.43,0-0.77,0.35-0.77,0.77v12.45
		c0,0.43,0.35,0.77,0.77,0.77h12.45c0.43,0,0.77-0.35,0.77-0.77V5.81c0-0.43-0.35-0.77-0.77-0.77H5.84z"/>
</g>
</svg>
