<?xml version="1.0" encoding="utf-8"?>
<!-- Generator: Adobe Illustrator 22.1.0, SVG Export Plug-In . SVG Version: 6.00 Build 0)  -->
<svg version="1.1" id="Ebene_1" xmlns="http://www.w3.org/2000/svg" xmlns:xlink="http://www.w3.org/1999/xlink" x="0px" y="0px"
	 width="24px" height="24px" viewBox="0 0 24 24" style="enable-background:new 0 0 24 24;" xml:space="preserve">
<path d="M12.53,12l4.21-4.21c0.15-0.15,0.15-0.38,0-0.53c-0.15-0.15-0.38-0.15-0.53,0L12,11.47L7.79,7.26
	c-0.15-0.15-0.38-0.15-0.53,0s-0.15,0.38,0,0.53L11.47,12l-4.21,4.21c-0.15,0.15-0.15,0.38,0,0.53c0.07,0.07,0.17,0.11,0.27,0.11
	s0.19-0.04,0.27-0.11L12,12.53l4.21,4.21c0.07,0.07,0.17,0.11,0.27,0.11s0.19-0.04,0.27-0.11c0.15-0.15,0.15-0.38,0-0.53L12.53,12z"
	/>
</svg>
