<?xml version="1.0" encoding="utf-8"?>
<!-- Generator: Adobe Illustrator 22.1.0, SVG Export Plug-In . SVG Version: 6.00 Build 0)  -->
<svg version="1.1" id="Ebene_2" xmlns="http://www.w3.org/2000/svg" xmlns:xlink="http://www.w3.org/1999/xlink" x="0px" y="0px"
	 width="24px" height="24px" viewBox="0 0 24 24" style="enable-background:new 0 0 24 24;" xml:space="preserve">
<path d="M12.37,10.49h2.86c0.21,0,0.38-0.17,0.38-0.38s-0.17-0.38-0.38-0.38h-2.86c-0.21,0-0.38,0.17-0.38,0.38
	S12.16,10.49,12.37,10.49z"/>
<path d="M12.37,12.99h2.86c0.21,0,0.38-0.17,0.38-0.38s-0.17-0.38-0.38-0.38h-2.86c-0.21,0-0.38,0.17-0.38,0.38
	S12.16,12.99,12.37,12.99z"/>
<path d="M19.04,17.85h-1.1V5.83c0-0.12-0.06-0.23-0.15-0.3s-0.22-0.09-0.33-0.06L9.93,7.79C9.78,7.83,9.67,7.98,9.67,8.14v3.21h-3.2
	c0,0,0,0,0,0s0,0,0,0c-0.21,0-0.38,0.17-0.38,0.38v6.11H5.04c-0.21,0-0.38,0.17-0.38,0.38s0.17,0.38,0.38,0.38h14
	c0.21,0,0.38-0.17,0.38-0.38S19.24,17.85,19.04,17.85z M17.19,6.34v11.51h-6.77V8.42L17.19,6.34z M6.84,12.11h2.83v5.74H6.84V12.11z
	"/>
</svg>
