<?xml version="1.0" encoding="utf-8"?>
<!-- Generator: Adobe Illustrator 22.1.0, SVG Export Plug-In . SVG Version: 6.00 Build 0)  -->
<svg version="1.1" id="Ebene_1" xmlns="http://www.w3.org/2000/svg" xmlns:xlink="http://www.w3.org/1999/xlink" x="0px" y="0px"
	 width="24px" height="24px" viewBox="0 0 24 24" style="enable-background:new 0 0 24 24;" xml:space="preserve">
<g>
	<path d="M12.7,19.67H5.72c-1.04,0-1.89-0.85-1.89-1.88V10.8c0-1.04,0.85-1.88,1.89-1.88h6.98c1.04,0,1.88,0.85,1.88,1.88v6.98
		C14.58,18.82,13.74,19.67,12.7,19.67z M5.72,9.67c-0.63,0-1.14,0.51-1.14,1.13v6.98c0,0.63,0.51,1.13,1.14,1.13h6.98
		c0.63,0,1.13-0.51,1.13-1.13V10.8c0-0.63-0.51-1.13-1.13-1.13H5.72z"/>
</g>
<g>
	<path d="M18.7,15.75h-0.93c-0.21,0-0.38-0.17-0.38-0.38S17.57,15,17.77,15h0.93c0.27,0,0.53-0.1,0.74-0.28
		c0.16-0.13,0.39-0.12,0.53,0.04c0.13,0.16,0.12,0.39-0.04,0.53C19.59,15.58,19.15,15.75,18.7,15.75z M20.21,13.53
		c-0.21,0-0.38-0.17-0.38-0.38v-2c0-0.21,0.17-0.38,0.38-0.38s0.38,0.17,0.38,0.38v2C20.58,13.37,20.42,13.53,20.21,13.53z
		 M20.21,9.53c-0.21,0-0.38-0.17-0.38-0.38v-2c0-0.21,0.17-0.38,0.38-0.38s0.38,0.17,0.38,0.38v2C20.58,9.37,20.42,9.53,20.21,9.53z
		 M10.21,7.25c-0.21,0-0.38-0.17-0.38-0.38c0-0.86,0.59-1.62,1.43-1.83c0.2-0.05,0.4,0.07,0.46,0.27c0.05,0.2-0.07,0.4-0.27,0.46
		c-0.51,0.13-0.86,0.58-0.86,1.1C10.58,7.09,10.42,7.25,10.21,7.25z M19.33,5.88c-0.05,0-0.11-0.01-0.16-0.03
		c-0.15-0.07-0.31-0.1-0.47-0.1h-1.35c-0.21,0-0.38-0.17-0.38-0.38S17.14,5,17.35,5h1.35c0.27,0,0.54,0.06,0.79,0.17
		c0.19,0.09,0.27,0.31,0.18,0.5C19.6,5.8,19.47,5.88,19.33,5.88z M15.35,5.75h-2c-0.21,0-0.38-0.17-0.38-0.38S13.14,5,13.35,5h2
		c0.21,0,0.38,0.17,0.38,0.38S15.56,5.75,15.35,5.75z"/>
</g>
</svg>
