<?xml version="1.0" encoding="utf-8"?>
<!-- Generator: Adobe Illustrator 22.1.0, SVG Export Plug-In . SVG Version: 6.00 Build 0)  -->
<svg version="1.1" id="Ebene_1" xmlns="http://www.w3.org/2000/svg" xmlns:xlink="http://www.w3.org/1999/xlink" x="0px" y="0px"
	 width="24px" height="24px" viewBox="0 0 24 24" style="enable-background:new 0 0 24 24;" xml:space="preserve">
<g>
	<path d="M11.64,13.23H5.97c-0.21,0-0.38-0.17-0.38-0.38V5.56c0-0.21,0.17-0.38,0.38-0.38h5.67c0.21,0,0.38,0.17,0.38,0.38v7.29
		C12.02,13.06,11.85,13.23,11.64,13.23z M6.35,12.48h4.92V5.94H6.35V12.48z"/>
</g>
<g>
	<path d="M11.64,18.81H5.97c-0.21,0-0.38-0.17-0.38-0.38v-4.05c0-0.21,0.17-0.38,0.38-0.38h5.67c0.21,0,0.38,0.17,0.38,0.38v4.05
		C12.02,18.64,11.85,18.81,11.64,18.81z M6.35,18.06h4.92v-3.3H6.35V18.06z"/>
</g>
<g>
	<path d="M18.03,18.81h-4.86c-0.21,0-0.38-0.17-0.38-0.38v-7.29c0-0.21,0.17-0.38,0.38-0.38h4.86c0.21,0,0.38,0.17,0.38,0.38v7.29
		C18.41,18.64,18.24,18.81,18.03,18.81z M13.54,18.06h4.11v-6.54h-4.11V18.06z"/>
</g>
<g>
	<path d="M18.03,9.99h-4.86c-0.21,0-0.38-0.17-0.38-0.38V5.56c0-0.21,0.17-0.38,0.38-0.38h4.86c0.21,0,0.38,0.17,0.38,0.38v4.05
		C18.41,9.82,18.24,9.99,18.03,9.99z M13.54,9.24h4.11v-3.3h-4.11V9.24z"/>
</g>
</svg>
