<?xml version="1.0" encoding="utf-8"?>
<!-- Generator: Adobe Illustrator 23.0.1, SVG Export Plug-In . SVG Version: 6.00 Build 0)  -->
<svg version="1.1" id="Ebene_1" xmlns="http://www.w3.org/2000/svg" xmlns:xlink="http://www.w3.org/1999/xlink" x="0px" y="0px"
	 width="24px" height="24px" viewBox="0 0 24 24" style="enable-background:new 0 0 24 24;" xml:space="preserve">
<g>
	<path d="M15.7,19.67H7.72c-1.04,0-1.89-0.85-1.89-1.88c0-0.21,0.17-0.38,0.38-0.38s0.38,0.17,0.38,0.38c0,0.63,0.51,1.13,1.14,1.13
		h7.98c0.63,0,1.13-0.51,1.13-1.13c0-0.21,0.17-0.38,0.38-0.38s0.38,0.17,0.38,0.38C17.58,18.82,16.74,19.67,15.7,19.67z"/>
</g>
<g>
	<path d="M7.76,7.62c-0.1,0-0.2,0-0.3,0l-1.26,0C6,7.61,5.83,7.45,5.83,7.24S6,6.86,6.21,6.86l0,0l1.27,0
		c0.43,0.01,0.91,0.02,1.11-0.17c0.03-0.03,0.12-0.12,0.13-0.41l0-2L9.1,3.92h6.6c1.04,0,1.88,0.85,1.88,1.88v1.44
		c0,0.21-0.17,0.38-0.38,0.38s-0.38-0.17-0.38-0.38V5.8c0-0.63-0.51-1.13-1.13-1.13H9.47l0,1.63c0,0.4-0.12,0.72-0.35,0.94
		C8.76,7.57,8.25,7.62,7.76,7.62z"/>
</g>
<g>
	<g>
		<path d="M17.21,9.55c-0.21,0-0.38-0.17-0.38-0.38v-0.5c0-0.21,0.17-0.38,0.38-0.38s0.38,0.17,0.38,0.38v0.5
			C17.58,9.38,17.42,9.55,17.21,9.55z"/>
	</g>
	<g>
		<path d="M17.21,11.35c-0.21,0-0.38-0.17-0.38-0.38v-0.72c0-0.21,0.17-0.38,0.38-0.38s0.38,0.17,0.38,0.38v0.72
			C17.58,11.19,17.42,11.35,17.21,11.35z"/>
	</g>
	<g>
		<path d="M17.21,14.96c-0.21,0-0.38-0.17-0.38-0.38v-0.72c0-0.21,0.17-0.38,0.38-0.38s0.38,0.17,0.38,0.38v0.72
			C17.58,14.79,17.42,14.96,17.21,14.96z M17.21,13.16c-0.21,0-0.38-0.17-0.38-0.38v-0.72c0-0.21,0.17-0.38,0.38-0.38
			s0.38,0.17,0.38,0.38v0.72C17.58,12.99,17.42,13.16,17.21,13.16z"/>
	</g>
	<g>
		<path d="M17.21,16.54c-0.21,0-0.38-0.17-0.38-0.38v-0.5c0-0.21,0.17-0.38,0.38-0.38s0.38,0.17,0.38,0.38v0.5
			C17.58,16.38,17.42,16.54,17.21,16.54z"/>
	</g>
</g>
<g>
	<g>
		<path d="M6.21,16.54c-0.21,0-0.38-0.17-0.38-0.38v-0.5c0-0.21,0.17-0.38,0.38-0.38s0.38,0.17,0.38,0.38v0.5
			C6.58,16.38,6.42,16.54,6.21,16.54z"/>
	</g>
	<g>
		<path d="M6.21,14.96c-0.21,0-0.38-0.17-0.38-0.38v-0.73c0-0.21,0.17-0.38,0.38-0.38s0.38,0.17,0.38,0.38v0.73
			C6.58,14.79,6.42,14.96,6.21,14.96z"/>
	</g>
	<g>
		<path d="M6.21,13.14c-0.21,0-0.38-0.17-0.38-0.38v-0.73c0-0.21,0.17-0.38,0.38-0.38s0.38,0.17,0.38,0.38v0.73
			C6.58,12.97,6.42,13.14,6.21,13.14z M6.21,11.32c-0.21,0-0.38-0.17-0.38-0.38v-0.73c0-0.21,0.17-0.38,0.38-0.38
			s0.38,0.17,0.38,0.38v0.73C6.58,11.15,6.42,11.32,6.21,11.32z"/>
	</g>
	<g>
		<path d="M6.21,9.5C6,9.5,5.83,9.34,5.83,9.13v-0.5c0-0.21,0.17-0.38,0.38-0.38s0.38,0.17,0.38,0.38v0.5
			C6.58,9.34,6.42,9.5,6.21,9.5z"/>
	</g>
</g>
</svg>
