<?xml version="1.0" encoding="utf-8"?>
<!-- Generator: Adobe Illustrator 22.1.0, SVG Export Plug-In . SVG Version: 6.00 Build 0)  -->
<svg version="1.1" id="Ebene_1" xmlns="http://www.w3.org/2000/svg" xmlns:xlink="http://www.w3.org/1999/xlink" x="0px" y="0px"
	 width="24px" height="24px" viewBox="0 0 24 24" style="enable-background:new 0 0 24 24;" xml:space="preserve">
<g>
	<path d="M5.95,19.84c-0.22,0-0.43-0.09-0.59-0.25C5.12,19.36,5.05,19,5.17,18.68l1.93-4.6c0.02-0.05,0.05-0.09,0.08-0.13l6.48-6.48
		c0,0,0,0,0,0l1.38-1.38c0.33-0.33,0.86-0.33,1.18,0l2.62,2.62c0.32,0.33,0.32,0.86,0,1.18l-1.33,1.33
		c-0.01,0.02-0.03,0.04-0.05,0.06l-6.48,6.48c-0.04,0.03-0.08,0.06-0.12,0.08l-4.59,1.93C6.17,19.82,6.06,19.84,5.95,19.84z
		 M7.58,14.88l-1.71,4.09c-0.01,0.03-0.01,0.07,0.02,0.1c0.02,0.02,0.06,0.04,0.09,0.02l4.09-1.72L7.58,14.88z M7.98,14.22
		l2.74,2.75l5.94-5.95c-0.61-0.62-2.13-2.13-2.74-2.75L7.98,14.22z M14.46,7.74c0.33,0.34,1.08,1.08,2.74,2.74l1.12-1.12
		c0.03-0.03,0.03-0.09,0-0.12l-2.62-2.62c-0.03-0.03-0.09-0.03-0.12,0L14.46,7.74z"/>
</g>
</svg>
