<?xml version="1.0" encoding="utf-8"?>
<!-- Generator: Adobe Illustrator 22.1.0, SVG Export Plug-In . SVG Version: 6.00 Build 0)  -->
<svg version="1.1" id="Ebene_1" xmlns="http://www.w3.org/2000/svg" xmlns:xlink="http://www.w3.org/1999/xlink" x="0px" y="0px"
	 width="24px" height="24px" viewBox="0 0 24 24" style="enable-background:new 0 0 24 24;" xml:space="preserve">
<g>
	<path d="M12.55,9.52h2.86c0.21,0,0.38-0.17,0.38-0.38s-0.17-0.38-0.38-0.38h-2.86c-0.21,0-0.38,0.17-0.38,0.38
		S12.34,9.52,12.55,9.52z"/>
	<path d="M15.41,11.27h-2.86c-0.21,0-0.38,0.17-0.38,0.38s0.17,0.38,0.38,0.38h2.86c0.21,0,0.38-0.17,0.38-0.38
		S15.62,11.27,15.41,11.27z"/>
	<path d="M15.41,13.78h-2.86c-0.21,0-0.38,0.17-0.38,0.38s0.17,0.38,0.38,0.38h2.86c0.21,0,0.38-0.17,0.38-0.38
		S15.62,13.78,15.41,13.78z"/>
	<path d="M19.05,19.33h-0.93V4.3c0-0.12-0.06-0.24-0.16-0.31c-0.1-0.07-0.23-0.08-0.35-0.04l-7.52,2.87
		C9.94,6.88,9.85,7.01,9.85,7.17v3.21H6.64c-0.21,0-0.38,0.17-0.38,0.38v1.77c0,0.21,0.17,0.38,0.38,0.38s0.38-0.17,0.38-0.38v-1.4
		h2.83v8.2H7.84c-0.21,0-0.38,0.17-0.38,0.38s0.17,0.38,0.38,0.38h11.21c0.21,0,0.38-0.17,0.38-0.38S19.26,19.33,19.05,19.33z
		 M10.6,7.43l6.77-2.58v14.48H10.6V7.43z"/>
	<path d="M8.31,16.87c0-1.13-0.66-3.33-1.88-3.33c-1.16,0-1.88,2.16-1.88,3.33c0,1.11,0.62,1.91,1.54,2.07
		c-0.02,0.04-0.03,0.08-0.03,0.13v0.63c0,0.21,0.17,0.38,0.38,0.38s0.38-0.17,0.38-0.38v-0.63c0-0.05-0.01-0.09-0.03-0.13
		C7.6,18.79,8.31,18.14,8.31,16.87z M5.31,16.87c0-1.09,0.65-2.58,1.12-2.58s1.12,1.5,1.12,2.58c0,0.84-0.43,1.35-1.12,1.35
		S5.31,17.71,5.31,16.87z"/>
</g>
</svg>
