<?xml version="1.0" encoding="utf-8"?>
<!-- Generator: Adobe Illustrator 22.1.0, SVG Export Plug-In . SVG Version: 6.00 Build 0)  -->
<svg version="1.1" id="Ebene_1" xmlns="http://www.w3.org/2000/svg" xmlns:xlink="http://www.w3.org/1999/xlink" x="0px" y="0px"
	 width="24px" height="24px" viewBox="0 0 24 24" style="enable-background:new 0 0 24 24;" xml:space="preserve">
<g>
	<path d="M19.89,13.11h-3.7c-0.49-0.46-1.14-0.77-1.94-0.77H9.73c-0.77,0-1.42,0.31-1.91,0.77H4.11c-1.21,0-2.02,1.05-2.02,2.02
		c0,0.84,0.41,2.36,0.42,2.43c0.04,0.17,0.2,0.28,0.36,0.28c0.03,0,0.06,0,0.1-0.01c0.2-0.05,0.32-0.26,0.27-0.46
		c0-0.02-0.4-1.49-0.4-2.23c0-0.62,0.51-1.27,1.27-1.27h3.12C7,14.28,6.87,14.74,6.87,15.2c0,1.25,0.61,3.51,0.63,3.61
		c0.05,0.17,0.2,0.28,0.36,0.28c0.03,0,0.06,0,0.1-0.01c0.2-0.05,0.32-0.26,0.26-0.46c-0.01-0.02-0.61-2.26-0.61-3.41
		c0-1.02,0.85-2.12,2.11-2.12h4.52c1.32,0,2.12,1.08,2.12,2.12c0,1.14-0.6,3.39-0.61,3.41c-0.05,0.2,0.07,0.41,0.26,0.46
		c0.21,0.06,0.41-0.07,0.46-0.26c0.03-0.1,0.63-2.37,0.63-3.61c0-0.46-0.13-0.92-0.36-1.34h3.13c0.76,0,1.28,0.66,1.28,1.27
		c0,0.74-0.39,2.22-0.4,2.23c-0.05,0.2,0.07,0.41,0.27,0.46c0.03,0.01,0.06,0.01,0.1,0.01c0.17,0,0.32-0.11,0.36-0.28
		c0.02-0.06,0.42-1.59,0.42-2.43C21.92,14.15,21.1,13.11,19.89,13.11z"/>
	<path d="M11.99,11.77c1.89,0,3.42-1.54,3.42-3.43s-1.54-3.42-3.42-3.42S8.56,6.45,8.56,8.34S10.1,11.77,11.99,11.77z M11.99,5.67
		c1.47,0,2.67,1.2,2.67,2.67s-1.2,2.68-2.67,2.68c-1.48,0-2.68-1.2-2.68-2.68S10.52,5.67,11.99,5.67z"/>
	<path d="M5.51,12.54c1.34,0,2.44-1.09,2.44-2.44S6.85,7.67,5.51,7.67c-1.34,0-2.43,1.09-2.43,2.44S4.17,12.54,5.51,12.54z
		 M5.51,8.42c0.93,0,1.69,0.76,1.69,1.69s-0.76,1.69-1.69,1.69c-0.93,0-1.68-0.76-1.68-1.69S4.58,8.42,5.51,8.42z"/>
	<path d="M18.49,12.54c1.34,0,2.43-1.09,2.43-2.44s-1.09-2.44-2.43-2.44s-2.44,1.09-2.44,2.44S17.15,12.54,18.49,12.54z M18.49,8.42
		c0.93,0,1.68,0.76,1.68,1.69s-0.76,1.69-1.68,1.69c-0.93,0-1.69-0.76-1.69-1.69S17.56,8.42,18.49,8.42z"/>
</g>
</svg>
