<?xml version="1.0" encoding="utf-8"?>
<!-- Generator: Adobe Illustrator 22.1.0, SVG Export Plug-In . SVG Version: 6.00 Build 0)  -->
<svg version="1.1" id="Ebene_1" xmlns="http://www.w3.org/2000/svg" xmlns:xlink="http://www.w3.org/1999/xlink" x="0px" y="0px"
	 width="24px" height="24px" viewBox="0 0 24 24" style="enable-background:new 0 0 24 24;" xml:space="preserve">
<g>
	<g>
		<path d="M12.06,15.61c-1.67,0-3.02-1.36-3.02-3.03s1.36-3.02,3.02-3.02c1.67,0,3.02,1.36,3.02,3.02S13.73,15.61,12.06,15.61z
			 M12.06,10.31c-1.25,0-2.27,1.02-2.27,2.27c0,1.25,1.02,2.28,2.27,2.28s2.27-1.02,2.27-2.28C14.33,11.33,13.31,10.31,12.06,10.31z
			"/>
	</g>
	<g>
		<path d="M12.08,17.61c-4.15,0-7.52-2.25-7.52-5.03c0-2.77,3.38-5.02,7.52-5.02s7.53,2.25,7.53,5.02
			C19.61,15.35,16.23,17.61,12.08,17.61z M12.08,8.31c-3.74,0-6.77,1.92-6.77,4.27s3.04,4.28,6.77,4.28c3.74,0,6.78-1.92,6.78-4.28
			S15.82,8.31,12.08,8.31z"/>
	</g>
</g>
</svg>
