<?xml version="1.0" encoding="utf-8"?>
<!-- Generator: Adobe Illustrator 24.1.0, SVG Export Plug-In . SVG Version: 6.00 Build 0)  -->
<svg version="1.1" id="Ebene_1" xmlns="http://www.w3.org/2000/svg" xmlns:xlink="http://www.w3.org/1999/xlink" x="0px" y="0px"
	 width="24px" height="24px" viewBox="0 0 24 24" enable-background="new 0 0 24 24" xml:space="preserve">
<path d="M4.31,10.75c-0.83,0-1.5,0.67-1.5,1.5s0.67,1.5,1.5,1.5s1.5-0.67,1.5-1.5S5.14,10.75,4.31,10.75z M4.31,4.75
	c-0.83,0-1.5,0.67-1.5,1.5s0.67,1.5,1.5,1.5s1.5-0.67,1.5-1.5S5.14,4.75,4.31,4.75z M4.31,16.75c-0.83,0-1.5,0.67-1.5,1.5
	s0.67,1.5,1.5,1.5s1.5-0.67,1.5-1.5S5.14,16.75,4.31,16.75z M7.31,19.25h14v-2h-14L7.31,19.25z M7.31,13.25h14v-2h-14L7.31,13.25z
	 M7.31,5.25v2h14v-2H7.31z"/>
</svg>
