<?xml version="1.0" encoding="utf-8"?>
<!-- Generator: Adobe Illustrator 24.1.0, SVG Export Plug-In . SVG Version: 6.00 Build 0)  -->
<svg version="1.1" id="Ebene_1" xmlns="http://www.w3.org/2000/svg" xmlns:xlink="http://www.w3.org/1999/xlink" x="0px" y="0px"
	 width="24px" height="24px" viewBox="0 0 24 24" enable-background="new 0 0 24 24" xml:space="preserve">
<path d="M2.63,17h2v0.5h-1v1h1V19h-2v1h3v-4h-3V17z M3.63,8h1V4h-2v1h1V8z M2.63,11h1.8l-1.8,2.1V14h3v-1h-1.8l1.8-2.1V10h-3V11z
	 M7.63,5v2h14V5H7.63z M7.63,19h14v-2h-14L7.63,19z M7.63,13h14v-2h-14L7.63,13z"/>
</svg>
