<?xml version="1.0" encoding="utf-8"?>
<!-- Generator: Adobe Illustrator 24.1.0, SVG Export Plug-In . SVG Version: 6.00 Build 0)  -->
<svg version="1.1" id="Ebene_1" xmlns="http://www.w3.org/2000/svg" xmlns:xlink="http://www.w3.org/1999/xlink" x="0px" y="0px"
	 width="24px" height="24px" viewBox="0 0 24 24" enable-background="new 0 0 24 24" xml:space="preserve">
<path d="M15.24,11.79c0.95-0.62,1.56-1.66,1.64-2.79c0.03-2.18-1.7-3.97-3.88-4c-0.04,0-0.08,0-0.12,0H6.63v14h7
	c2.1-0.06,3.75-1.8,3.69-3.9c-0.04-1.41-0.86-2.69-2.12-3.31H15.24z M9.63,7.5h3c0.83,0,1.5,0.67,1.5,1.5s-0.67,1.5-1.5,1.5h-3V7.5z
	 M13.13,16.5h-3.5v-3h3.5c0.83,0,1.5,0.67,1.5,1.5S13.96,16.5,13.13,16.5z"/>
</svg>
