<?xml version="1.0" encoding="utf-8"?>
<!-- Generator: Adobe Illustrator 23.0.1, SVG Export Plug-In . SVG Version: 6.00 Build 0)  -->
<svg version="1.1" id="Ebene_1" xmlns="http://www.w3.org/2000/svg" xmlns:xlink="http://www.w3.org/1999/xlink" x="0px" y="0px"
	 width="24px" height="24px" viewBox="0 0 24 24" style="enable-background:new 0 0 24 24;" xml:space="preserve">
<path d="M12.11,4.71c-0.11,0-0.21,0-0.32,0.01c-4.02,0.16-7.06,3.26-7.06,7.21c0,4.15,3.3,7.53,7.35,7.53c4.08,0,7.4-3.32,7.4-7.4
	C19.48,8.01,16.17,4.71,12.11,4.71z M18.03,9.14h-2.89c-0.35-1.25-0.96-2.45-1.83-3.56C15.39,5.96,17.12,7.31,18.03,9.14z
	 M18.73,12.06c0,0.65-0.1,1.28-0.27,1.87h-3.19c0.29-1.37,0.32-2.73,0.07-4.04h3.02C18.59,10.57,18.73,11.3,18.73,12.06z M12,18.71
	c-0.98-1.34-1.68-2.69-2.1-4.03h4.41c-0.42,1.34-1.11,2.69-2.1,4.03c-0.04,0-0.09,0.01-0.13,0.01C12.05,18.71,12.03,18.71,12,18.71z
	 M9.7,13.93c-0.32-1.38-0.35-2.74-0.06-4.04h4.95c0.28,1.3,0.26,2.66-0.06,4.04H9.7z M5.48,11.94c0-0.72,0.12-1.4,0.33-2.05h3.08
	c-0.26,1.31-0.23,2.67,0.07,4.04H5.77C5.58,13.3,5.48,12.63,5.48,11.94z M12.24,5.47c1.03,1.14,1.74,2.37,2.15,3.67H9.83
	c0.41-1.3,1.12-2.53,2.15-3.67c0.04,0,0.09,0,0.13,0C12.15,5.46,12.19,5.47,12.24,5.47z M10.91,5.57c-0.88,1.11-1.49,2.31-1.84,3.57
	H6.11C6.99,7.28,8.74,5.94,10.91,5.57z M6.05,14.68h3.08c0.38,1.31,1.01,2.64,1.89,3.94C8.79,18.24,6.94,16.73,6.05,14.68z
	 M13.2,18.61c0.88-1.3,1.51-2.62,1.89-3.93h3.11C17.31,16.72,15.44,18.23,13.2,18.61z"/>
</svg>
