<?xml version="1.0" encoding="utf-8"?>
<!-- Generator: Adobe Illustrator 22.1.0, SVG Export Plug-In . SVG Version: 6.00 Build 0)  -->
<svg version="1.1" id="Ebene_1" xmlns="http://www.w3.org/2000/svg" xmlns:xlink="http://www.w3.org/1999/xlink" x="0px" y="0px"
	 width="24px" height="24px" viewBox="0 0 24 24" style="enable-background:new 0 0 24 24;" xml:space="preserve">
<g>
	<path d="M19.56,12.11h-1.51c-0.21,0-0.38-0.17-0.38-0.38s0.17-0.38,0.38-0.38h1.51c0.21,0,0.38,0.17,0.38,0.38
		S19.76,12.11,19.56,12.11z"/>
</g>
<g>
	<path d="M6.09,12.11H4.58c-0.21,0-0.38-0.17-0.38-0.38s0.17-0.38,0.38-0.38h1.51c0.21,0,0.38,0.17,0.38,0.38S6.3,12.11,6.09,12.11z
		"/>
</g>
<g>
	<path d="M12.07,6.13c-0.21,0-0.38-0.17-0.38-0.38V4.24c0-0.21,0.17-0.38,0.38-0.38s0.38,0.17,0.38,0.38v1.51
		C12.44,5.96,12.27,6.13,12.07,6.13z"/>
</g>
<g>
	<path d="M7.69,7.95c-0.1,0-0.19-0.04-0.26-0.11L6.34,6.78C6.2,6.63,6.2,6.4,6.34,6.25c0.15-0.15,0.38-0.15,0.53,0l1.08,1.06
		c0.15,0.15,0.15,0.38,0,0.53C7.88,7.91,7.78,7.95,7.69,7.95z"/>
</g>
<g>
	<path d="M16.48,7.97c-0.09,0-0.19-0.04-0.26-0.11c-0.15-0.15-0.15-0.38,0-0.53l1.06-1.08c0.15-0.15,0.38-0.15,0.53,0
		c0.15,0.15,0.15,0.38,0,0.53l-1.06,1.08C16.67,7.93,16.58,7.97,16.48,7.97z"/>
</g>
<g>
	<path d="M13.44,20.01h-2.8c-0.21,0-0.38-0.17-0.38-0.38s0.17-0.38,0.38-0.38h2.8c0.21,0,0.38,0.17,0.38,0.38
		S13.65,20.01,13.44,20.01z"/>
</g>
<g>
	<path d="M13.94,18.62h-3.86c-0.21,0-0.38-0.17-0.38-0.38s0.17-0.38,0.38-0.38h3.86c0.21,0,0.38,0.17,0.38,0.38
		S14.15,18.62,13.94,18.62z"/>
</g>
<g>
	<path d="M14.17,17.23H10c-0.21,0-0.37-0.17-0.38-0.37l-0.01-1.28c-0.56-0.37-2.12-1.59-2.12-3.87c0-2.71,2.37-4.53,4.57-4.53
		c2.19,0,4.56,1.73,4.56,4.53c0,2.32-1.52,3.51-2.09,3.87v1.27C14.54,17.07,14.38,17.23,14.17,17.23z M10.37,16.48h3.43v-1.11
		c0-0.14,0.08-0.27,0.2-0.33c0.08-0.04,1.88-1,1.88-3.32c0-2.34-1.98-3.78-3.81-3.78c-1.85,0-3.82,1.52-3.82,3.78
		c0,2.25,1.84,3.28,1.92,3.32c0.12,0.07,0.2,0.19,0.2,0.33L10.37,16.48z"/>
</g>
</svg>
