<?xml version="1.0" encoding="utf-8"?>
<!-- Generator: Adobe Illustrator 22.1.0, SVG Export Plug-In . SVG Version: 6.00 Build 0)  -->
<svg version="1.1" id="Ebene_1" xmlns="http://www.w3.org/2000/svg" xmlns:xlink="http://www.w3.org/1999/xlink" x="0px" y="0px"
	 width="24px" height="24px" viewBox="0 0 24 24" enable-background="new 0 0 24 24" xml:space="preserve">
<g>
	<g>
		<path d="M12.69,14.47h-6c-1.03,0-1.88-0.84-1.88-1.87v-6c0-1.03,0.84-1.88,1.88-1.88h6c1.03,0,1.88,0.84,1.88,1.88v1.81
			c0,0.21-0.17,0.38-0.38,0.38s-0.38-0.17-0.38-0.38V6.6c0-0.62-0.5-1.12-1.12-1.12h-6c-0.62,0-1.12,0.5-1.12,1.12v6
			c0,0.62,0.5,1.12,1.12,1.12h6c0.62,0,1.12-0.5,1.12-1.12v-1.17c0-0.21,0.17-0.38,0.38-0.38s0.38,0.17,0.38,0.38v1.17
			C14.57,13.63,13.73,14.47,12.69,14.47z"/>
	</g>
	<g>
		<path d="M17.32,19.34h-6c-1.03,0-1.88-0.84-1.88-1.88v-1.83c0-0.21,0.17-0.38,0.38-0.38s0.38,0.17,0.38,0.38v1.83
			c0,0.62,0.5,1.12,1.12,1.12h6c0.62,0,1.12-0.5,1.12-1.12v-6c0-0.62-0.5-1.12-1.12-1.12h-6c-0.62,0-1.12,0.5-1.12,1.12v1.06
			c0,0.21-0.17,0.38-0.38,0.38s-0.38-0.17-0.38-0.38v-1.06c0-1.03,0.84-1.88,1.88-1.88h6c1.03,0,1.88,0.84,1.88,1.88v6
			C19.19,18.5,18.35,19.34,17.32,19.34z"/>
	</g>
</g>
</svg>
