<?xml version="1.0" encoding="utf-8"?>
<svg width="17px" height="17px" viewBox="0 0 17 17" version="1.1" xmlns="http://www.w3.org/2000/svg" xmlns:xlink="http://www.w3.org/1999/xlink">
<g transform="translate(1.000000, 1.000000)">
	<path d="M9.44527877,8.45404677 C9.31049547,8.29679957 9.32870604,8.06006208 9.48595323,7.92527877 C9.64320043,7.79049547 9.87993792,7.80870604 10.0147212,7.96595323 L10.055165,8.01483496 C10.5087184,8.46838835 11.2312816,8.46838835 11.684397,8.01527361 L14.704835,4.98483496 C15.4483883,4.24128157 15.4483883,3.01871843 14.704835,2.27516504 L13.364835,0.935165043 C12.6212816,0.191611652 11.3987184,0.191611652 10.6556044,0.934724936 L7.64516504,3.95516504 C7.19161165,4.40871843 7.19161165,5.13128157 7.64516504,5.58483496 L7.71516504,5.65483496 C7.86161165,5.80128157 7.86161165,6.03871843 7.71516504,6.18516504 C7.56871843,6.33161165 7.33128157,6.33161165 7.18483496,6.18516504 L7.11483496,6.11516504 C6.36838835,5.36871843 6.36838835,4.17128157 7.11439558,3.42527506 L10.124835,0.404834957 C11.1612816,-0.631611652 12.8587184,-0.631611652 13.895165,0.404834957 L15.235165,1.74483496 C16.2716117,2.78128157 16.2716117,4.47871843 15.235603,5.51472639 L12.215165,8.54516504 C11.4687184,9.29161165 10.2712816,9.29161165 9.50527877,8.52404677 L9.44527877,8.45404677 Z" id="Stroke-1"></path>
	<path d="M6.16404677,7.15527877 C6.32129396,7.29006208 6.33950453,7.52679957 6.20472123,7.68404677 C6.06993792,7.84129396 5.83320043,7.85950453 5.67595323,7.72472123 L5.58483496,7.64516504 C5.13128157,7.19161165 4.40871843,7.19161165 3.95516504,7.64516504 L0.935165043,10.665165 C0.191611652,11.4087184 0.191611652,12.6312816 0.935165043,13.374835 L2.27516504,14.714835 C3.01871843,15.4583883 4.24128157,15.4583883 4.98483496,14.714835 L8.00483496,11.694835 C8.45838835,11.2412816 8.45838835,10.5187184 8.00483496,10.065165 L7.93483496,9.99516504 C7.78838835,9.84871843 7.78838835,9.61128157 7.93483496,9.46483496 C8.08128157,9.31838835 8.31871843,9.31838835 8.46516504,9.46483496 L8.53516504,9.53483496 C9.28161165,10.2812816 9.28161165,11.4787184 8.53516504,12.225165 L5.51516504,15.245165 C4.47871843,16.2816117 2.78128157,16.2816117 1.74483496,15.245165 L0.404834957,13.905165 C-0.631611652,12.8687184 -0.631611652,11.1712816 0.404834957,10.134835 L3.42483496,7.11483496 C4.17128157,6.36838835 5.36871843,6.36838835 6.09404677,7.09527877 L6.16404677,7.15527877 Z" id="Stroke-3"></path>
	<path d="M5.12538834,11.0549416 C4.97906516,11.2015115 4.74162837,11.2017115 4.59505844,11.0553883 C4.44848851,10.9090652 4.44828848,10.6716284 4.59461166,10.5250584 L10.5246117,4.58505844 C10.6709348,4.43848851 10.9083716,4.43828848 11.0549416,4.58461166 C11.2015115,4.73093484 11.2017115,4.96837163 11.0553883,5.11494156 L5.12538834,11.0549416 Z" id="Stroke-5"></path>
</g>
</svg>
