<?xml version="1.0" encoding="utf-8"?>
<!-- Generator: Adobe Illustrator 23.0.1, SVG Export Plug-In . SVG Version: 6.00 Build 0)  -->
<svg version="1.1" id="Ebene_1" xmlns="http://www.w3.org/2000/svg" xmlns:xlink="http://www.w3.org/1999/xlink" x="0px" y="0px"
	 width="24px" height="24px" viewBox="0 0 24 24" style="enable-background:new 0 0 24 24;" xml:space="preserve">
<g>
	<path d="M17.79,19.82C17.79,19.82,17.79,19.82,17.79,19.82L6.03,19.8c-0.21,0-0.38-0.17-0.37-0.38c0-0.21,0.17-0.37,0.38-0.37h0
		l11.76,0.02c0.21,0,0.37,0.17,0.37,0.38C18.17,19.65,18,19.82,17.79,19.82z"/>
</g>
<g>
	<path d="M11.69,17.78c-0.08,0-0.15-0.02-0.22-0.07c-0.19-0.14-4.72-3.45-4.72-7.16c0-2.96,2.13-5.2,4.94-5.2
		c2.82,0,4.94,2.23,4.94,5.2c0,3.7-4.53,7.02-4.72,7.16C11.84,17.76,11.76,17.78,11.69,17.78z M11.69,6.1
		c-2.39,0-4.19,1.91-4.19,4.45c0,2.89,3.3,5.68,4.19,6.38c0.89-0.7,4.19-3.5,4.19-6.38C15.88,8.02,14.08,6.1,11.69,6.1z"/>
</g>
<g>
	<path d="M11.69,12.33c-1.12,0-2.03-0.91-2.03-2.03s0.91-2.03,2.03-2.03c1.12,0,2.03,0.91,2.03,2.03S12.81,12.33,11.69,12.33z
		 M11.69,9.02c-0.71,0-1.28,0.58-1.28,1.28c0,0.71,0.58,1.28,1.28,1.28c0.71,0,1.28-0.58,1.28-1.28
		C12.97,9.59,12.39,9.02,11.69,9.02z"/>
</g>
</svg>
