<?xml version="1.0" encoding="utf-8"?>
<!-- Generator: Adobe Illustrator 22.1.0, SVG Export Plug-In . SVG Version: 6.00 Build 0)  -->
<svg version="1.1" id="Ebene_1" xmlns="http://www.w3.org/2000/svg" xmlns:xlink="http://www.w3.org/1999/xlink" x="0px" y="0px"
	 width="24px" height="24px" viewBox="0 0 24 24" style="enable-background:new 0 0 24 24;" xml:space="preserve">
<path d="M17.75,10.44h-1.58V9.51c0-2.19-1.88-3.98-4.18-3.98c-2.27,0-4.18,1.82-4.18,3.98v0.93H6.25c-0.19,0-0.35,0.16-0.35,0.35
	v8.73c0,0.19,0.16,0.35,0.35,0.35h11.5c0.19,0,0.35-0.16,0.35-0.35v-8.73C18.1,10.6,17.94,10.44,17.75,10.44z M8.51,9.51
	c0-1.75,1.63-3.28,3.48-3.28c1.89,0,3.48,1.5,3.48,3.28v0.93H8.51V9.51z M17.4,19.17H6.6v-8.03h10.8V19.17z"/>
</svg>
