<?xml version="1.0" encoding="UTF-8"?>
<svg width="24px" height="24px" viewBox="0 0 24 24" version="1.1" xmlns="http://www.w3.org/2000/svg" xmlns:xlink="http://www.w3.org/1999/xlink">
    <!-- Generator: Sketch 52.2 (67145) - http://www.bohemiancoding.com/sketch -->
    <title>kiwi</title>
    <desc>Created with Sketch.</desc>
    <g id="kiwi" stroke="none" stroke-width="1" fill="none" fill-rule="evenodd">
        <g id="Group" transform="translate(2.000000, -0.000000)" fill="#000000" stroke="#000000">
            <g id="Path">
                <path d="M13.3529412,11.1529412 C13.3529412,11.1529412 12.0588236,14.1176471 7.76470592,14.9764707 L8.1176471,17.164706 C8.9058824,17.2470589 10.0352942,17.5176471 9.92941181,18.5764707 C9.67058828,18.1294119 9.24705887,18.0352942 8.77647063,17.9294119 C8.80000004,18.2000001 8.80000004,18.4588236 8.77647063,18.7176472 C8.54117651,18.2470589 8.16470592,17.964706 7.75294122,17.9176471 C7.49411768,17.882353 7.20000004,17.9411766 7.1294118,17.8235295 C7.05882356,17.7058824 7.29411768,17.6588236 7.29411768,17.5294119 C7.29411768,17.2117648 7.17647062,15.9294118 6.62352944,15.3294118 C6.62352944,15.3294118 5.32941179,15.1882354 5.1411765,16.4705883 C4.96470591,17.764706 5.32941179,17.9058824 5.49411767,17.9764707 C6.1294118,18.2705883 7.3176471,18.282353 7.63529416,19.0000001 C7.11764709,18.882353 6.60000003,18.8352942 6.08235297,18.8117648 C6.1411765,19.0470589 6.20000003,19.2588236 6.23529415,19.5176472 C5.97647062,19.364706 5.37647062,18.9294119 4.76470591,18.882353 C4.49411767,18.8588236 4.17647061,18.9294119 4.09411767,18.8000001 C4.03529414,18.682353 4.41176473,18.564706 4.44705885,18.1764707 C4.52941179,17.4117648 4.29411767,16.6470589 3.35294119,15.7529413 C2.41176472,14.8588236 1.05882353,14.5529412 0.682352945,12.2352942 C0.270588237,9.64705887 0.764705886,8.23529416 1.92941177,7.11764709 C3.10588237,5.98823532 5.52941179,5.32941179 6.94117651,5.29411767 C8.35294122,5.25882356 9.29411769,5.41176473 10.7294118,6.11764709 C12.1764706,6.82352945 12.3294118,7.64705886 13.4705883,7.5294118 C16.2117648,7.14117651 17.1764707,7.88235298 17.3764707,10.5058824 L17.3529413,11.7058824 C17.3529413,11.7058824 19.082353,13.7058824 19.3294119,16.5058824 C19.3294119,16.5058824 19.482353,17.3294119 19.2470589,17.682353 C18.8352942,16.2705883 18.364706,13.8588236 16.6588236,12.1294118 C16.6588236,12.1294118 14.8941177,12.3882354 13.3647059,11.1647059 L13.3529412,11.1529412 Z"></path>
            </g>
        </g>
    </g>
</svg>
