<?xml version="1.0" encoding="utf-8"?>
<!-- Generator: Adobe Illustrator 22.1.0, SVG Export Plug-In . SVG Version: 6.00 Build 0)  -->
<svg version="1.1" id="Ebene_1" xmlns="http://www.w3.org/2000/svg" xmlns:xlink="http://www.w3.org/1999/xlink" x="0px" y="0px"
	 width="24px" height="24px" viewBox="0 0 24 24" style="enable-background:new 0 0 24 24;" xml:space="preserve">
<path d="M19.55,18.96l-4.34-4.22c0.97-1.1,1.57-2.54,1.57-4.12c0-3.43-2.79-6.23-6.23-6.23c-3.43,0-6.23,2.79-6.23,6.23
	s2.79,6.22,6.23,6.22c1.58,0,3.03-0.6,4.13-1.58l4.34,4.23c0.07,0.07,0.17,0.11,0.26,0.11c0.1,0,0.2-0.04,0.27-0.11
	C19.7,19.34,19.7,19.11,19.55,18.96z M5.08,10.62c0-3.02,2.46-5.48,5.48-5.48s5.48,2.46,5.48,5.48c0,1.51-0.61,2.87-1.6,3.86
	c0,0-0.01,0-0.01,0.01c0,0,0,0.01-0.01,0.01c-0.99,0.98-2.35,1.59-3.86,1.59C7.54,16.09,5.08,13.64,5.08,10.62z"/>
</svg>
