<?xml version="1.0" encoding="utf-8"?>
<!-- Generator: Adobe Illustrator 22.1.0, SVG Export Plug-In . SVG Version: 6.00 Build 0)  -->
<svg version="1.1" id="Ebene_1" xmlns="http://www.w3.org/2000/svg" xmlns:xlink="http://www.w3.org/1999/xlink" x="0px" y="0px"
	 width="24px" height="24px" viewBox="0 0 24 24" style="enable-background:new 0 0 24 24;" xml:space="preserve">
<g>
	<path d="M10.59,18.34H5.54v-2.37h0.67c0.21,0,0.38-0.17,0.38-0.38s-0.17-0.38-0.38-0.38H5.54v-2.55h0.67
		c0.21,0,0.38-0.17,0.38-0.38s-0.17-0.38-0.38-0.38H5.54V9.37h0.67c0.21,0,0.38-0.17,0.38-0.38S6.42,8.62,6.21,8.62H5.54V6.23h8.35
		c0.44,0,0.81,0.36,0.81,0.81v3.11c0,0.21,0.17,0.38,0.38,0.38s0.38-0.17,0.38-0.38V7.04c0-0.86-0.7-1.56-1.56-1.56H5.23
		c-0.25,0-0.44,0.2-0.44,0.45v2.69H4.07c-0.21,0-0.38,0.17-0.38,0.38s0.17,0.38,0.38,0.38h0.72v2.56H4.08
		c-0.21,0-0.38,0.17-0.38,0.38s0.17,0.38,0.38,0.38h0.71v2.55H4.08c-0.21,0-0.38,0.17-0.38,0.38s0.17,0.38,0.38,0.38h0.71v2.68
		c0,0.25,0.2,0.44,0.44,0.44h5.36c0.21,0,0.38-0.17,0.38-0.38S10.8,18.34,10.59,18.34z"/>
	<path d="M14.8,12.04c-1.99,0-3.61,1.62-3.61,3.62s1.62,3.62,3.61,3.62c0.21,0,0.38-0.17,0.38-0.38s-0.17-0.38-0.38-0.38
		c-1.58,0-2.86-1.29-2.86-2.87s1.28-2.87,2.86-2.87s2.87,1.29,2.87,2.87c0,0.29-0.13,0.84-0.17,0.99c-0.02,0.05-0.17,0.31-0.63,0.23
		c-0.38-0.07-0.52-0.25-0.57-0.35c0.37-0.84,0.4-1.86,0.41-2.02l0-0.29l-0.29-0.07c-0.3-0.08-1.85-0.44-2.5,0.28
		c-0.43,0.47-0.86,1.54-0.57,2.34c0.13,0.36,0.46,0.8,1.27,0.91c0.07,0.01,0.13,0.01,0.19,0.01c0.35,0,0.67-0.12,0.93-0.35
		c0.05-0.04,0.09-0.1,0.13-0.14c0.19,0.19,0.46,0.36,0.86,0.43c0.88,0.16,1.33-0.38,1.46-0.72c0.02-0.08,0.21-0.79,0.21-1.23
		C18.42,13.67,16.79,12.04,14.8,12.04z M14.72,16.92c-0.53-0.07-0.63-0.33-0.66-0.42c-0.18-0.48,0.14-1.26,0.42-1.58
		c0.12-0.14,0.41-0.19,0.74-0.19c0.24,0,0.49,0.03,0.72,0.07c-0.05,0.59-0.23,1.56-0.68,1.96C15.1,16.89,14.93,16.95,14.72,16.92z"
		/>
</g>
</svg>
