<?xml version="1.0" encoding="utf-8"?>
<!-- Generator: Adobe Illustrator 22.1.0, SVG Export Plug-In . SVG Version: 6.00 Build 0)  -->
<svg version="1.1" id="Ebene_1" xmlns="http://www.w3.org/2000/svg" xmlns:xlink="http://www.w3.org/1999/xlink" x="0px" y="0px"
	 width="24px" height="24px" viewBox="0 0 24 24" style="enable-background:new 0 0 24 24;" xml:space="preserve">
<path d="M17.51,9.72c-0.02-0.04-0.04-0.07-0.07-0.1c-0.01-0.01-0.01-0.02-0.01-0.02l-3.6-3.61c0,0,0,0,0,0
	c-0.03-0.03-0.08-0.06-0.12-0.08c-0.05-0.02-0.09-0.03-0.14-0.03H6.84c-0.21,0-0.38,0.17-0.38,0.38V19.5c0,0.21,0.17,0.38,0.38,0.38
	h10.32c0.21,0,0.38-0.17,0.38-0.38V9.86C17.54,9.81,17.52,9.76,17.51,9.72z M13.93,7.16l2.32,2.33h-2.32V7.16z M7.21,19.12V6.62
	h5.97v3.23c0,0.21,0.17,0.38,0.38,0.38h3.23v8.89H7.21z"/>
</svg>
