<?xml version="1.0" encoding="utf-8"?>
<!-- Generator: Adobe Illustrator 22.1.0, SVG Export Plug-In . SVG Version: 6.00 Build 0)  -->
<svg version="1.1" id="Ebene_1" xmlns="http://www.w3.org/2000/svg" xmlns:xlink="http://www.w3.org/1999/xlink" x="0px" y="0px"
	 width="24px" height="24px" viewBox="0 0 24 24" style="enable-background:new 0 0 24 24;" xml:space="preserve">
<g>
	<path d="M16.88,19.52c-0.03,0-0.06,0-0.1-0.01c-0.2-0.05-0.32-0.26-0.26-0.46c0.01-0.02,0.63-2.36,0.63-3.53
		c0-1.08-0.82-2.2-2.2-2.2H9.17c-1.32,0-2.2,1.14-2.2,2.2c0,1.18,0.62,3.51,0.63,3.53c0.05,0.2-0.06,0.41-0.26,0.46
		c-0.2,0.06-0.41-0.07-0.46-0.26c-0.03-0.1-0.66-2.45-0.66-3.73c0-1.42,1.19-2.95,2.95-2.95h5.78c1.82,0,2.95,1.53,2.95,2.95
		c0,1.27-0.63,3.63-0.66,3.73C17.19,19.41,17.04,19.52,16.88,19.52z"/>
</g>
<g>
	<path d="M12.06,11.88c-1.99,0-3.61-1.62-3.61-3.61s1.62-3.61,3.61-3.61c1.99,0,3.61,1.62,3.61,3.61S14.05,11.88,12.06,11.88z
		 M12.06,5.4c-1.58,0-2.86,1.28-2.86,2.86c0,1.58,1.28,2.86,2.86,2.86s2.86-1.28,2.86-2.86C14.92,6.69,13.63,5.4,12.06,5.4z"/>
</g>
</svg>
