<?xml version="1.0" encoding="utf-8"?>
<!-- Generator: Adobe Illustrator 22.1.0, SVG Export Plug-In . SVG Version: 6.00 Build 0)  -->
<svg version="1.1" id="Ebene_1" xmlns="http://www.w3.org/2000/svg" xmlns:xlink="http://www.w3.org/1999/xlink" x="0px" y="0px"
	 width="24px" height="24px" viewBox="0 0 24 24" style="enable-background:new 0 0 24 24;" xml:space="preserve">
<path d="M18.93,15.5c-0.39-0.47-1.47-1.59-1.89-2c-0.81-0.8-1.65-0.52-2.17,0c-0.35,0.34-0.73,0.74-1.13,1.2c-0.01,0-0.01,0-0.02,0
	c-0.37,0-1.73-1.07-2.96-2.48c-0.89-1.02-1.23-1.69-1.28-1.92c0.29-0.26,0.92-0.85,1.17-1.11c0.64-0.68,0.59-1.51-0.15-2.28
	c-0.39-0.4-1.33-1.35-1.77-1.75C8.13,4.58,7.35,4.56,6.83,5.08C6.4,5.48,5.77,6.14,5.42,6.54C4.77,7.24,4.59,8.06,4.84,9.18
	c0.26,1.13,1.06,3.41,3.52,6.08c2.15,2.33,4.61,3.43,5.89,3.87c0.59,0.2,1.12,0.3,1.61,0.3c0.7,0,1.27-0.21,1.71-0.63
	c0.37-0.35,0.67-0.68,1.07-1.11C19.33,16.94,19.44,16.1,18.93,15.5z M18.09,17.19c-0.39,0.42-0.68,0.73-1.04,1.08
	c-0.65,0.63-1.75,0.43-2.55,0.16c-1.21-0.42-3.55-1.46-5.59-3.67c-2.34-2.54-3.1-4.69-3.34-5.74C5.33,7.93,5.62,7.43,5.98,7.04
	C6.32,6.65,6.94,6,7.35,5.62C7.47,5.5,7.6,5.46,7.71,5.46c0.23,0,0.43,0.17,0.5,0.24c0,0,0,0,0.01,0.01
	c0.42,0.38,1.37,1.34,1.74,1.72c0.59,0.61,0.4,0.97,0.15,1.24C9.83,8.95,9.1,9.63,8.91,9.8c-0.08,0.06-0.17,0.18-0.18,0.38
	c-0.05,0.7,1.01,2,1.47,2.53c0.1,0.11,2.38,2.72,3.52,2.74c0.24-0.01,0.42-0.11,0.5-0.2c0.46-0.49,0.82-0.87,1.17-1.21
	c0.37-0.37,0.75-0.37,1.12,0c0.4,0.39,1.47,1.5,1.84,1.95C18.72,16.41,18.29,16.97,18.09,17.19z"/>
</svg>
