<?xml version="1.0" encoding="utf-8"?>
<!-- Generator: Adobe Illustrator 22.1.0, SVG Export Plug-In . SVG Version: 6.00 Build 0)  -->
<svg version="1.1" id="Ebene_1" xmlns="http://www.w3.org/2000/svg" xmlns:xlink="http://www.w3.org/1999/xlink" x="0px" y="0px"
	 width="24px" height="24px" viewBox="0 0 24 24" style="enable-background:new 0 0 24 24;" xml:space="preserve">
<path d="M20.13,7.48c-0.18-0.1-0.41-0.04-0.51,0.14l-1.45,2.57c-0.48-2-1.83-3.53-2.98-4.31C11.79,3.61,7.19,4.52,4.92,7.9
	c-1.1,1.64-1.5,3.61-1.12,5.55c0.38,1.94,1.49,3.61,3.13,4.71c1.17,0.78,2.66,1.22,4.07,1.22c0.33,0,0.65-0.02,0.96-0.07
	c0.2-0.03,0.35-0.22,0.31-0.43c-0.03-0.2-0.22-0.35-0.43-0.31c-1.49,0.23-3.22-0.17-4.5-1.03c-1.47-0.99-2.47-2.49-2.82-4.23
	c-0.34-1.74,0.01-3.51,1-4.98c2.04-3.04,6.18-3.86,9.22-1.81c1.13,0.76,2.32,2.24,2.71,4.01l-2.44-1.65
	c-0.17-0.12-0.41-0.07-0.52,0.1c-0.12,0.17-0.07,0.4,0.1,0.52l3.09,2.09c0.01,0.01,0.02,0.01,0.03,0.02l0.02,0.01c0,0,0,0,0.01,0
	c0.05,0.03,0.11,0.05,0.18,0.06c0.01,0,0.01,0.01,0.02,0.01c0.01,0,0.01,0,0.02,0c0,0,0.01,0,0.01,0c0,0,0.01,0,0.01,0
	c0.02,0,0.03,0,0.05-0.01c0.01,0,0.03-0.01,0.04-0.02c0.02-0.01,0.05-0.02,0.07-0.03c0.02-0.01,0.04-0.03,0.05-0.04
	c0.02-0.02,0.04-0.04,0.05-0.06c0.01-0.01,0.02-0.02,0.02-0.03l1.98-3.49C20.37,7.81,20.31,7.58,20.13,7.48z"/>
</svg>
