<?xml version="1.0" encoding="utf-8"?>
<!-- Generator: Adobe Illustrator 22.1.0, SVG Export Plug-In . SVG Version: 6.00 Build 0)  -->
<svg version="1.1" id="Ebene_1" xmlns="http://www.w3.org/2000/svg" xmlns:xlink="http://www.w3.org/1999/xlink" x="0px" y="0px"
	 width="24px" height="24px" viewBox="0 0 24 24" style="enable-background:new 0 0 24 24;" xml:space="preserve">
<g>
	<path d="M21.51,10.25c-0.21,0-0.38,0.17-0.38,0.38v8.52H2.88V9.2c0-0.21-0.17-0.38-0.38-0.38S2.13,8.99,2.13,9.2v10.32
		c0,0.21,0.17,0.38,0.38,0.38h19c0.21,0,0.38-0.17,0.38-0.38v-8.9C21.88,10.41,21.72,10.25,21.51,10.25z"/>
	<path d="M5.3,17.28c0.21,0,0.38-0.17,0.38-0.38V6.48h11.58c0.21,0,0.38-0.17,0.38-0.38s-0.17-0.38-0.38-0.38H5.3
		c-0.21,0-0.38,0.17-0.38,0.38v10.8C4.92,17.11,5.09,17.28,5.3,17.28z"/>
	<path d="M12.06,12.25c0-0.21-0.17-0.38-0.38-0.38H7.74c-0.21,0-0.38,0.17-0.38,0.38s0.17,0.38,0.38,0.38h3.95
		C11.9,12.62,12.06,12.46,12.06,12.25z"/>
	<path d="M7.74,14.12c-0.21,0-0.38,0.17-0.38,0.38s0.17,0.38,0.38,0.38h3.4c0.21,0,0.38-0.17,0.38-0.38s-0.17-0.38-0.38-0.38H7.74z"
		/>
	<path d="M13.21,10.02c0-0.21-0.17-0.38-0.38-0.38H7.74c-0.21,0-0.38,0.17-0.38,0.38s0.17,0.38,0.38,0.38h5.09
		C13.04,10.4,13.21,10.23,13.21,10.02z"/>
	<path d="M21.95,7.26L19.8,5.6c-0.32-0.24-0.77-0.17-1,0.13L18,6.77c-0.03,0.02-0.05,0.04-0.07,0.07l-4.12,5.31
		c-0.05,0.07-0.08,0.15-0.08,0.23l-0.95,3.43c-0.08,0.27,0.01,0.57,0.26,0.77c0.12,0.09,0.27,0.14,0.42,0.14
		c0.12,0,0.25-0.03,0.37-0.1l3.16-1.83l-0.01-0.01c0.04-0.02,0.08-0.05,0.1-0.09l4.12-5.3l0,0l0.88-1.13
		C22.32,7.94,22.26,7.49,21.95,7.26z M13.5,16.02l0.83-2.99l1.81,1.4L13.5,16.02z M16.72,13.93l-2.09-1.62L18.3,7.6l2.09,1.62
		L16.72,13.93z M20.85,8.63L18.76,7l0.59-0.81l2.13,1.61L20.85,8.63z"/>
</g>
</svg>
