<?xml version="1.0" encoding="utf-8"?>
<!-- Generator: Adobe Illustrator 22.1.0, SVG Export Plug-In . SVG Version: 6.00 Build 0)  -->
<svg version="1.1" id="Ebene_1" xmlns="http://www.w3.org/2000/svg" xmlns:xlink="http://www.w3.org/1999/xlink" x="0px" y="0px"
	 width="24px" height="24px" viewBox="0 0 24 24" style="enable-background:new 0 0 24 24;" xml:space="preserve">
<g>
	<path d="M21.53,19.91H2.49c-0.21,0-0.38-0.17-0.38-0.38V9.2c0-0.21,0.17-0.38,0.38-0.38S2.87,8.99,2.87,9.2v9.96h18.29v-3.35
		c0-0.21,0.17-0.38,0.38-0.38s0.38,0.17,0.38,0.38v3.72C21.91,19.74,21.74,19.91,21.53,19.91z"/>
</g>
<g>
	<path d="M5.29,17.29c-0.21,0-0.38-0.17-0.38-0.38V6.09c0-0.21,0.17-0.38,0.38-0.38h8.52c0.21,0,0.38,0.17,0.38,0.38
		s-0.17,0.38-0.38,0.38H5.67v10.45C5.67,17.12,5.5,17.29,5.29,17.29z"/>
</g>
<g>
	<path d="M10.43,14.87H7.77c-0.21,0-0.38-0.17-0.38-0.38s0.17-0.38,0.38-0.38h2.66c0.21,0,0.38,0.17,0.38,0.38
		S10.64,14.87,10.43,14.87z"/>
</g>
<g>
	<path d="M13.12,10.4H7.74c-0.21,0-0.38-0.17-0.38-0.38s0.17-0.38,0.38-0.38h5.38c0.21,0,0.38,0.17,0.38,0.38S13.33,10.4,13.12,10.4
		z"/>
</g>
<g>
	<path d="M10.86,12.62H7.74c-0.21,0-0.38-0.17-0.38-0.38s0.17-0.38,0.38-0.38h3.12c0.21,0,0.38,0.17,0.38,0.38
		S11.07,12.62,10.86,12.62z"/>
</g>
<g>
	<path d="M14.05,17.41c-0.09,0-0.18-0.01-0.27-0.03c-0.36-0.08-0.67-0.3-0.85-0.63c-0.13-0.24-0.49-1.09,0.49-1.91
		c0.37-0.31,3.84-3.02,3.99-3.14c0.16-0.13,0.4-0.1,0.53,0.06c0.13,0.16,0.1,0.4-0.07,0.53c-0.04,0.03-3.61,2.82-3.97,3.12
		c-0.48,0.4-0.44,0.75-0.31,0.97c0.08,0.14,0.2,0.23,0.35,0.26c0.18,0.04,0.39-0.02,0.58-0.16c0.06-0.04,0.12-0.09,0.21-0.16
		l0.32-0.25c1.38-1.09,3.97-3.01,4-3.02c0.17-0.12,0.4-0.09,0.52,0.08c0.12,0.17,0.09,0.4-0.08,0.52c-0.03,0.02-2.6,1.93-3.98,3.01
		l-0.32,0.25c-0.11,0.08-0.18,0.14-0.24,0.18C14.68,17.3,14.36,17.41,14.05,17.41z"/>
</g>
<g>
	<path d="M13.48,15.36c-0.07,0-0.14-0.01-0.21-0.02c-0.39-0.07-0.74-0.31-0.96-0.68c-0.35-0.58-0.16-1.41,0.43-1.9
		c0.42-0.35,4.13-3.34,4.67-3.77l0.17-0.14c0.27-0.21,0.83-0.65,0.85-0.83c-0.11-0.06-0.72-0.14-1.13-0.19
		c-0.44-0.06-0.95-0.12-1.38-0.24c-1.29-0.35-1.32-1.6-1.16-2.22c0.04-0.17,0.19-0.28,0.36-0.28h5.6c0.21,0,0.38,0.17,0.38,0.38
		s-0.17,0.38-0.38,0.38h-5.28c-0.02,0.33,0.06,0.85,0.68,1.02c0.38,0.1,0.83,0.16,1.27,0.22c0.85,0.11,1.35,0.19,1.6,0.47
		c0.13,0.15,0.2,0.34,0.18,0.53c-0.05,0.5-0.6,0.93-1.13,1.35l-0.17,0.13c-0.55,0.43-4.24,3.41-4.66,3.77
		c-0.33,0.28-0.41,0.71-0.27,0.94c0.11,0.18,0.27,0.3,0.45,0.33c0.19,0.04,0.4-0.04,0.6-0.21c0.16-0.13,0.4-0.11,0.53,0.05
		c0.13,0.16,0.11,0.4-0.05,0.53C14.16,15.23,13.82,15.36,13.48,15.36z"/>
</g>
<g>
	<path d="M16.33,17.92c-0.42,0-0.8-0.19-1.03-0.47c-0.4-0.48-0.31-1.08-0.19-1.36c0.08-0.19,0.3-0.28,0.49-0.2
		c0.19,0.08,0.28,0.3,0.2,0.49c-0.01,0.02-0.13,0.36,0.07,0.6c0.17,0.21,0.53,0.31,0.91,0.05l4.67-3.27l0.43,0.62l-4.67,3.27
		C16.92,17.84,16.62,17.92,16.33,17.92z"/>
</g>
</svg>
