<?xml version="1.0" encoding="utf-8"?>
<!-- Generator: Adobe Illustrator 22.1.0, SVG Export Plug-In . SVG Version: 6.00 Build 0)  -->
<svg version="1.1" id="Ebene_1" xmlns="http://www.w3.org/2000/svg" xmlns:xlink="http://www.w3.org/1999/xlink" x="0px" y="0px"
	 width="24px" height="24px" viewBox="0 0 24 24" style="enable-background:new 0 0 24 24;" xml:space="preserve">
<g>
	<path d="M10.63,17.12H4.52c-0.63,0-1.15-0.51-1.15-1.15l0.01-6.1c0-0.39,0.28-0.79,0.68-0.95c0.3-0.17,0.71-0.1,1,0.21l1.34,1.34
		l3.13-3.13c0.15-0.15,0.38-0.15,0.53,0s0.15,0.38,0,0.53l-3.4,3.4c-0.15,0.15-0.38,0.15-0.53,0L4.52,9.66
		C4.44,9.57,4.4,9.59,4.38,9.6C4.22,9.66,4.13,9.79,4.13,9.87l-0.01,6.1c0,0.22,0.18,0.39,0.4,0.39h6.11c0.04,0,0.18-0.08,0.25-0.23
		c0.04-0.09,0.01-0.11,0-0.13l-1.55-1.55c-0.07-0.07-0.11-0.17-0.11-0.27S9.25,14,9.32,13.92l4.57-4.57l-1.28-1.29
		c-0.25-0.23-0.31-0.59-0.16-0.95c0.17-0.4,0.56-0.69,0.94-0.69h6.11c0.63,0,1.14,0.51,1.14,1.15l-0.01,6.1
		c0,0.39-0.29,0.79-0.68,0.95c-0.36,0.15-0.73,0.06-1.01-0.22l-1.34-1.34l-3.24,3.25c-0.15,0.14-0.38,0.15-0.53,0
		c-0.15-0.15-0.15-0.38,0-0.53l3.51-3.51c0.15-0.15,0.39-0.15,0.53,0l1.61,1.61c0.09,0.09,0.15,0.08,0.2,0.06
		c0.12-0.05,0.21-0.19,0.21-0.25l0.01-6.1c0-0.21-0.18-0.39-0.39-0.39h-6.11c-0.04,0-0.18,0.08-0.25,0.23
		c-0.01,0.02-0.04,0.09-0.01,0.12l1.56,1.56c0.15,0.15,0.15,0.38,0,0.53l-4.58,4.58l1.29,1.28c0.25,0.25,0.31,0.59,0.16,0.95
		C11.4,16.83,11,17.12,10.63,17.12z"/>
</g>
</svg>
