<?xml version="1.0" encoding="utf-8"?>
<!-- Generator: Adobe Illustrator 22.1.0, SVG Export Plug-In . SVG Version: 6.00 Build 0)  -->
<svg version="1.1" id="Ebene_1" xmlns="http://www.w3.org/2000/svg" xmlns:xlink="http://www.w3.org/1999/xlink" x="0px" y="0px"
	 width="24px" height="24px" viewBox="0 0 24 24" style="enable-background:new 0 0 24 24;" xml:space="preserve">
<path d="M18.3,12.94c-0.04-0.08-0.11-0.13-0.19-0.16l-3.35-1.28c-0.01-0.04-0.01-0.07-0.02-0.11c-0.03-0.1-0.08-0.25-0.14-0.41
	l2.72-1.1c0.05-0.02,0.09-0.05,0.12-0.08l2.4-2.4c0.15-0.15,0.15-0.38,0-0.53c-0.15-0.15-0.38-0.15-0.53,0L16.96,9.2l-2.66,1.07
	c-0.11-0.25-0.23-0.5-0.36-0.73l2.29-2.15c0.07-0.06,0.11-0.14,0.12-0.23l0.4-3.6c0.02-0.21-0.13-0.39-0.33-0.41
	c-0.2-0.03-0.39,0.13-0.41,0.33l-0.38,3.46l-2.1,1.97c-0.04-0.05-0.09-0.1-0.13-0.13C13.3,8.73,13.2,8.68,13.1,8.63l0.44-2.65
	c0.03-0.2-0.1-0.4-0.31-0.43c-0.21-0.04-0.4,0.1-0.43,0.31l-0.43,2.58c-0.26-0.03-0.54-0.03-0.8,0l-0.43-2.58
	c-0.03-0.2-0.23-0.34-0.43-0.31c-0.2,0.03-0.34,0.23-0.31,0.43l0.44,2.65c-0.1,0.05-0.2,0.1-0.29,0.16
	c-0.04,0.03-0.08,0.08-0.13,0.12l-2.1-1.97L7.94,3.48C7.92,3.28,7.74,3.12,7.53,3.15C7.32,3.17,7.17,3.36,7.2,3.56l0.4,3.6
	C7.61,7.25,7.65,7.33,7.71,7.4L10,9.55c-0.13,0.23-0.25,0.48-0.36,0.73L6.98,9.2L4.64,6.86c-0.15-0.15-0.38-0.15-0.53,0
	s-0.15,0.38,0,0.53l2.4,2.4c0.04,0.04,0.08,0.06,0.12,0.08l2.72,1.1c-0.06,0.17-0.12,0.31-0.14,0.41c-0.01,0.04-0.01,0.07-0.02,0.11
	l-3.35,1.28c-0.08,0.03-0.15,0.09-0.19,0.16l-1.6,2.8c-0.1,0.18-0.04,0.41,0.14,0.51c0.06,0.03,0.12,0.05,0.19,0.05
	c0.13,0,0.26-0.07,0.33-0.19l1.53-2.68l3.01-1.15c0.05,0.16,0.12,0.32,0.22,0.48L7.3,15.07c-0.04,0.04-0.07,0.09-0.09,0.15l-1.2,4
	c-0.06,0.2,0.05,0.41,0.25,0.47c0.04,0.01,0.07,0.02,0.11,0.02c0.16,0,0.31-0.1,0.36-0.27l1.17-3.92l2.04-2.17
	c0.16,0.16,0.34,0.32,0.55,0.47C9.5,14.66,8.8,16.2,8.8,17.56c0,2.21,1.65,3.21,3.17,3.21c1.53,0,3.18-1,3.18-3.21
	c0-1.36-0.7-2.9-1.69-3.74c0.21-0.16,0.39-0.32,0.55-0.47l2.04,2.17l1.17,3.92c0.05,0.16,0.2,0.27,0.36,0.27
	c0.04,0,0.07,0,0.11-0.02c0.2-0.06,0.31-0.27,0.25-0.47l-1.2-4c-0.02-0.06-0.05-0.11-0.09-0.15l-2.16-2.31
	c0.1-0.16,0.17-0.32,0.22-0.48l3.01,1.15l1.53,2.68c0.07,0.12,0.2,0.19,0.33,0.19c0.06,0,0.13-0.02,0.19-0.05
	c0.18-0.1,0.24-0.33,0.14-0.51L18.3,12.94z M14.4,17.56c0,1.7-1.22,2.46-2.43,2.46c-1.21,0-2.42-0.76-2.42-2.46
	c0-1.73,1.27-3.62,2.42-3.62S14.4,15.83,14.4,17.56z M11.97,13.18c-0.28,0-0.55,0.08-0.81,0.2c-0.7-0.49-1.41-1.16-1.23-1.8
	c0.18-0.65,0.84-2,1.06-2.18c0.46-0.33,1.51-0.32,1.96,0c0.22,0.18,0.88,1.52,1.06,2.18c0.18,0.64-0.54,1.31-1.23,1.8
	C12.52,13.27,12.25,13.18,11.97,13.18z"/>
</svg>
