<?xml version="1.0" encoding="utf-8"?>
<!-- Generator: Adobe Illustrator 22.1.0, SVG Export Plug-In . SVG Version: 6.00 Build 0)  -->
<svg version="1.1" id="Ebene_1" xmlns="http://www.w3.org/2000/svg" xmlns:xlink="http://www.w3.org/1999/xlink" x="0px" y="0px"
	 width="24px" height="24px" viewBox="0 0 24 24" style="enable-background:new 0 0 24 24;" xml:space="preserve">
<g>
	<path d="M21.53,5.71H5.29c-0.21,0-0.38,0.17-0.38,0.38v10.82c0,0.21,0.17,0.38,0.38,0.38s0.38-0.17,0.38-0.38V6.46h15.49v12.69
		H2.87V9.2c0-0.21-0.17-0.38-0.38-0.38S2.12,8.99,2.12,9.2v10.33c0,0.21,0.17,0.38,0.38,0.38h19.04c0.21,0,0.38-0.17,0.38-0.38V6.09
		C21.91,5.88,21.74,5.71,21.53,5.71z"/>
	<path d="M19.04,12.63c0.21,0,0.38-0.17,0.38-0.38V8.34c0-0.21-0.17-0.38-0.38-0.38h-3.92c-0.21,0-0.38,0.17-0.38,0.38v3.92
		c0,0.21,0.17,0.38,0.38,0.38H19.04z M15.5,8.71h3.17v3.17H15.5V8.71z"/>
	<path d="M7.73,12.62h5.14c0.21,0,0.38-0.17,0.38-0.38s-0.17-0.38-0.38-0.38H7.73c-0.21,0-0.38,0.17-0.38,0.38
		S7.52,12.62,7.73,12.62z"/>
	<path d="M7.73,14.87h11.38c0.21,0,0.38-0.17,0.38-0.38s-0.17-0.38-0.38-0.38H7.73c-0.21,0-0.38,0.17-0.38,0.38
		S7.52,14.87,7.73,14.87z"/>
	<path d="M7.73,10.38h5.14c0.21,0,0.38-0.17,0.38-0.38s-0.17-0.38-0.38-0.38H7.73c-0.21,0-0.38,0.17-0.38,0.38
		S7.52,10.38,7.73,10.38z"/>
</g>
</svg>
