<?xml version="1.0" encoding="utf-8"?>
<!-- Generator: Adobe Illustrator 22.1.0, SVG Export Plug-In . SVG Version: 6.00 Build 0)  -->
<svg version="1.1" id="Ebene_1" xmlns="http://www.w3.org/2000/svg" xmlns:xlink="http://www.w3.org/1999/xlink" x="0px" y="0px"
	 width="24px" height="24px" viewBox="0 0 24 24" style="enable-background:new 0 0 24 24;" xml:space="preserve">
<g>
	<path d="M20.14,17.58l-1.88-1.4c-0.17-0.12-0.4-0.09-0.52,0.08l-0.38,0.51l-0.91-0.68c0.83-1.15,1.33-2.56,1.33-4.08
		c0-3.86-3.14-7-7-7s-6.99,3.14-6.99,7c0,3.86,3.14,7,6.99,7c2.06,0,3.92-0.9,5.2-2.33l0.93,0.7l-0.38,0.51
		c-0.06,0.08-0.08,0.18-0.07,0.28s0.07,0.19,0.15,0.25l1.88,1.4c0.25,0.18,0.54,0.27,0.82,0.27c0.42,0,0.85-0.19,1.12-0.56
		c0.22-0.29,0.31-0.66,0.26-1.03S20.44,17.8,20.14,17.58z M10.78,18.25c-3.44,0-6.24-2.8-6.24-6.25s2.8-6.25,6.24-6.25
		c3.44,0,6.25,2.8,6.25,6.25S14.22,18.25,10.78,18.25z M19.83,19.06c-0.21,0.28-0.62,0.35-0.9,0.14c0,0,0,0,0,0l-1.58-1.18L18.12,17
		l1.58,1.18c0.13,0.1,0.22,0.25,0.25,0.41S19.93,18.93,19.83,19.06z"/>
	<path d="M12.55,13.92H9.08c-1.15,0-1.93,1-1.93,1.92c0,0.21,0.17,0.38,0.38,0.38s0.38-0.17,0.38-0.38c0-0.57,0.47-1.17,1.18-1.17
		h3.47c0.74,0,1.17,0.6,1.17,1.17c0,0.21,0.17,0.38,0.38,0.38s0.38-0.17,0.38-0.38C14.47,14.9,13.75,13.92,12.55,13.92z"/>
	<path d="M10.8,13.5c1.5,0,2.73-1.22,2.73-2.73S12.3,8.04,10.8,8.04c-1.5,0-2.72,1.22-2.72,2.73S9.3,13.5,10.8,13.5z M10.8,8.79
		c1.09,0,1.98,0.89,1.98,1.98s-0.89,1.98-1.98,1.98c-1.09,0-1.97-0.89-1.97-1.98S9.71,8.79,10.8,8.79z"/>
</g>
</svg>
