<?xml version="1.0" encoding="utf-8"?>
<!-- Generator: Adobe Illustrator 22.1.0, SVG Export Plug-In . SVG Version: 6.00 Build 0)  -->
<svg version="1.1" id="Ebene_1" xmlns="http://www.w3.org/2000/svg" xmlns:xlink="http://www.w3.org/1999/xlink" x="0px" y="0px"
	 width="24px" height="24px" viewBox="0 0 24 24" style="enable-background:new 0 0 24 24;" xml:space="preserve">
<g>
	<path d="M19.74,9.31c-0.75-0.72-1.73-1.13-2.77-1.15C16.01,6.33,14.08,5.15,12,5.15c-2.83,0-5.2,2.12-5.58,4.89
		c-0.81-0.06-1.61,0.18-2.25,0.7C3.43,11.35,3,12.26,3,13.22c0,0.92,0.29,1.67,0.85,2.23c0.94,0.93,2.34,0.96,2.51,0.96
		c0.01,0,0.01,0,0.02,0h2.25c0.21,0,0.38-0.17,0.38-0.38s-0.17-0.38-0.38-0.38H6.36c-0.01,0-1.23,0.01-1.99-0.74
		c-0.41-0.41-0.62-0.98-0.62-1.69c0-0.74,0.33-1.43,0.9-1.89c0.57-0.46,1.31-0.64,2.03-0.49c0.11,0.03,0.22,0,0.3-0.07
		c0.09-0.07,0.14-0.17,0.15-0.28C7.29,7.92,9.43,5.9,12,5.9c1.9,0,3.59,1.07,4.4,2.8c0.06,0.14,0.2,0.24,0.35,0.21
		c0.95-0.03,1.81,0.3,2.47,0.94c0.67,0.64,1.03,1.5,1.03,2.43c0,2.93-2.93,3.36-3,3.38h-1.88c-0.21,0-0.38,0.17-0.38,0.38
		s0.17,0.38,0.38,0.38l1.93,0c0.04,0,3.71-0.52,3.71-4.12C21,11.15,20.56,10.1,19.74,9.31z"/>
	<path d="M12.27,11.3C12.27,11.3,12.27,11.3,12.27,11.3c-0.07-0.07-0.16-0.11-0.27-0.11s-0.2,0.04-0.27,0.11c0,0,0,0,0,0l-2.35,2.36
		c-0.15,0.15-0.15,0.38,0,0.53c0.15,0.15,0.38,0.15,0.53,0l1.71-1.72v6c0,0.21,0.17,0.38,0.38,0.38s0.38-0.17,0.38-0.38v-6
		l1.71,1.72c0.07,0.07,0.17,0.11,0.27,0.11c0.1,0,0.19-0.04,0.26-0.11c0.15-0.15,0.15-0.38,0-0.53L12.27,11.3z"/>
</g>
</svg>
