<?xml version="1.0" encoding="utf-8"?>
<!-- Generator: Adobe Illustrator 22.1.0, SVG Export Plug-In . SVG Version: 6.00 Build 0)  -->
<svg version="1.1" id="Ebene_2" xmlns="http://www.w3.org/2000/svg" xmlns:xlink="http://www.w3.org/1999/xlink" x="0px" y="0px"
	 width="24px" height="24px" viewBox="0 0 24 24" style="enable-background:new 0 0 24 24;" xml:space="preserve">
<g>
	<g>
		<path d="M19.68,18.74H4.23c-0.14,0-0.26-0.07-0.33-0.19c-0.07-0.12-0.06-0.26,0-0.38l7.72-12.86c0.13-0.23,0.51-0.23,0.64,0
			L20,18.17c0.07,0.12,0.07,0.26,0,0.38C19.94,18.66,19.81,18.74,19.68,18.74z M4.89,17.99h14.12L11.95,6.23L4.89,17.99z"/>
	</g>
	<g>
		<path d="M11.95,14.87c-0.21,0-0.38-0.17-0.38-0.38V9.32c0-0.21,0.17-0.38,0.38-0.38s0.38,0.17,0.38,0.38v5.17
			C12.33,14.71,12.16,14.87,11.95,14.87z"/>
	</g>
	<g>
		<circle cx="11.95" cy="16.41" r="0.68"/>
	</g>
</g>
</svg>
