<?xml version="1.0" encoding="utf-8"?>
<svg version="1.1" xmlns="http://www.w3.org/2000/svg" xmlns:xlink="http://www.w3.org/1999/xlink" viewBox="0 0 582.04 453.05" xml:space="preserve">
<style>
    #kiwi {
	  animation: hide 8s infinite ease-in-out;
    }
    #leftPupil {
      animation: lookLeftPupil 8s infinite ease-in-out;
    }
    #rightPupil {
      animation: lookRightPupil 8s infinite ease-in-out;
    }    
    @keyframes hide {
      0%,
      80%,
      100% {
      	transform: translate(0, 300px);
      }
      12%,
      70% {
		transform: translate(0, 0);
      }
    }
    @keyframes lookLeftPupil {
      0%,
      25%,
      70%,
      100% {
      	transform: translate(0, 0);
      }
      30%,
      45% {
		transform: translate(-45px, 0);
      }
      50%,
      65% {
      	transform: translate(15px, 0);
      }
    }
    @keyframes lookRightPupil {
      0%,
      25%,
      70%,
      100% {
      	transform: translate(0, 0);
      }
      30%,
      45% {
		transform: translate(-25px, 0);
      }
      50%,
      65% {
      	transform: translate(5px, 0);
      }
    }
</style>
<defs>
  <clipPath id="clip">
    <rect x="0" y="0" width="580" height="340" />
  </clipPath>
</defs>  
<g id="hole">
  <ellipse fill="#EAF4F9" cx="289.55" cy="331.65" rx="245" ry="69.64"/>
</g>
<g clip-path="url(#clip)">
  <g id="kiwi">
	<circle fill="#FFFFFF" cx="364.11" cy="99.56" r="36.32"/>
	<path fill="#F2F2F2" d="M365.93,61.24c-12.2,0-22.99,6.04-29.56,15.28c6.33-5.39,14.52-8.65,23.49-8.65
		c20.02,0,36.25,16.23,36.25,36.25c0,7.81-2.48,15.04-6.69,20.96c7.8-6.65,12.76-16.54,12.76-27.59
		C402.17,77.47,385.95,61.24,365.93,61.24z"/>
	<path fill="none" stroke="#000000" stroke-linecap="round" stroke-linejoin="round" stroke-miterlimit="10" d="M400.13,100.55
		c0.43,2.65-1.17,7.42-2.02,10.25c-0.87,2.91-1.16,4.72-3.06,7.8c-0.86,1.39-1.93,2.41-2.96,3.67c-1.55,1.9-3.17,3.94-5.07,5.48
		c-6.25,5.08-14.22,8.13-22.9,8.13c-20.06,0-36.32-16.26-36.32-36.32s16.26-36.32,36.32-36.32c14.61,0,27.21,8.63,32.97,21.07
		c0.93,2.01,1.68,4.11,2.23,6.3C400.04,93.48,399.78,98.38,400.13,100.55z"/>
	<path fill="#8C6239" d="M332.51,182.5c-2.9,11.03-7.04,23.79-10.75,41.5c-2.25,10.75-4.62,20.62-5.75,29.75
		c-1.06,8.62,0.43,22.43,4.86,36.88c4.13,13.48,12.78,25.21,18.55,35.23c9.75,16.94,20.17,13.41,20.17,13.41s-1.91,1.41-5.29,1.97
		c3.94,5.12,11.53,6.21,11.53,6.21s-3.99,0.82-7.91,0.39c11.31,11.06,14.34,20.55,19.13,24.69c17.35,15.01-180.81,21.74-182.62,14.5
		c-1.77-7.07-5.89-21.74-7.72-33.63c-1.19-7.71-3.92-20.82-2.82-44.21c0.56-11.9,2.7-24.04,5.79-36.37
		c0.25-0.99,0.75-3.06,1.01-4.05c-2.63,2.01-5.22,2.6-5.22,2.6s4.21-4.93,7.25-17.18c-8.25,3.83-13.01,3.74-13.01,3.74
		s8.84-5.26,14.34-12.66c-3.09,0.26-6.25-0.67-6.25-0.67s8.02-0.68,16-12.92c4.69-7.19,7.63-14.47,12-21.95
		c17.38-29.74,27.54-41.9,50.46-63.08c3.92-3.42,8.11-7.29,9.75-8.29c12.88-8,28.54-16.51,33.5-18.88c17-8.12,41.25,6.63,41.25,6.63
		s-8-0.63-12.25,12.37c-3.3,10.09,2.17,18.83,2.17,18.83S335.01,173,332.51,182.5z"/>
	<path fill="#FBB03B" d="M347.01,125c4.33-0.75,10.55,6.68,12.5,9c15.75,18.75,27.61,49.88,33.5,82.74
		c5.73,31.99,4.51,67.33-0.75,100c-7.81,48.51-20.75,70.75-20.75,70.75s9.01-17.93,13.75-58.5c2.82-24.1,2.87-48.17-1.42-71
		c-4.9-26.12-11.33-45-17.67-58.33c-5.47-11.51-20.83-38.83-25-43.5C339.88,152.86,331.51,136.67,347.01,125z"/>
	<path fill="none" stroke="#000000" stroke-linecap="round" stroke-linejoin="round" stroke-miterlimit="10" d="M340.01,156.25
		c0,0-3.75-11.25-0.5-20.25c5-13.87,9.62-10.62,9.62-10.62"/>
	<path fill="none" stroke="#000000" stroke-linecap="round" stroke-linejoin="round" stroke-miterlimit="10" d="M353.3,343.24
		c2.78-0.35,4.28-1.16,8.48-4.13c-8.94,0.55-11.67-1.55-13.19-3.05c-1.52-1.5-2.46-2.61-3.55-4.02
		c-10.31-13.3-18.17-26.29-22.75-39.21c-5.45-15.34-6.79-27.32-5.25-38.88c2-15,7.94-38.45,10.97-50.46
		c6-23.75,8.25-31.25,13.25-45.5c8.25,10,20.27,32.98,28.58,53.67c11.42,28.42,14.33,58.67,16,76
		C389.27,323.28,373.01,389,373.01,389s23.3-56.87,24.5-117c0.61-30.67-2.58-61.25-14.5-93.75c-3.6-9.81-8.58-28.92-26.5-47.49
		c-20.75-21.5-66.05,2.5-69.96,3.65"/>
	<path fill="none" stroke="#000000" stroke-linecap="round" stroke-linejoin="round" stroke-miterlimit="10" d="M200.23,247.28
		c-6.87,1.83-11.68,0.83-11.68,0.83c8.83-3.33,14.06-10.18,16.97-15.12c2.18-3.72,4.14-7.64,6.16-11.59
		c2.21-4.32,4.59-8.65,7.12-12.99c15.86-27.14,25.46-40.91,45.12-59.41c4.29-4.04,11.96-10.75,11.96-10.75"/>
	<path fill="none" stroke="#000000" stroke-linecap="round" stroke-linejoin="round" stroke-miterlimit="10" d="M194.71,248.38
		c0,0-9,11.64-16.45,13.48c8.68-1.11,14.13-3.98,17.39-6.52c1.04-0.81,1.85-1.58,2.48-2.25"/>
	<path fill="none" stroke="#000000" stroke-linecap="round" stroke-linejoin="round" stroke-miterlimit="10" d="M193.42,257.06
		c0,0-3.32,12.15-7.51,17.35c3-0.51,5.85-2.63,7.6-5.75"/>
	<path fill="none" stroke="#000000" stroke-linecap="round" stroke-linejoin="round" stroke-miterlimit="10" d="M193.42,268.6
		c-0.05,0.2-0.1,0.39-0.15,0.59c-2.13,8.12-4.16,15.64-5.44,24.15c-3.35,22.31-2.21,40.56-0.42,53.58
		c1.17,8.48,4.75,25.15,6.47,33.19"/>
	<path fill="none" stroke="#000000" stroke-linecap="round" stroke-linejoin="round" stroke-miterlimit="10" d="M355.69,342.77
		c0,0,4.14,4.15,14.33,5.23c-5.61,1.73-8.71,2.51-13.1,1.84"/>
	<circle fill="#FFFFFF" cx="304.3" cy="98.91" r="48.5"/>
	<path fill="#F2F2F2" d="M306.8,48.03c-16.33,0-30.77,8.08-39.55,20.45c8.47-7.21,19.44-11.58,31.43-11.58
		c26.79,0,48.5,21.71,48.5,48.5c0,10.45-3.32,20.13-8.95,28.05c10.44-8.9,17.07-22.13,17.07-36.92
		C355.3,69.75,333.58,48.03,306.8,48.03z"/>
	<path fill="none" stroke="#000000" stroke-linecap="round" stroke-linejoin="round" stroke-miterlimit="10" d="M352.28,98.91
		c0.34,3.09,0.08,5.64-0.05,7.47c-0.08,1.08-1.24,3.73-1.45,4.75c-0.35,1.69-0.55,3.44-0.96,4.56c-1.87,5.07-4.56,9.74-7.92,13.85
		c-8.89,10.9-22.43,17.87-37.6,17.87c-10.59,0-20.39-3.4-28.37-9.16c-12.19-8.81-20.13-23.15-20.13-39.34
		c0-6.31,1.56-12.46,3.05-16.81c0.8-2.34,3.27-5.47,3.73-7.92c0.68-3.64,4.02-5.99,6.57-8.68c8.84-9.3,21.32-15.09,35.16-15.09
		c11.97,0,22.92,4.33,31.38,11.52c8.51,7.23,14.49,17.34,16.44,28.82C352.56,93.4,351.97,96.14,352.28,98.91z"/>
	<circle id="rightPupil" cx="382" cy="115.8" r="6.43"/>
	<circle id="leftPupil" cx="325" cy="116.91" r="7.5"/>
  </g>
</g>
</svg>
